<svg width="28" height="28" viewBox="0 0 28 28" fill="none" xmlns="http://www.w3.org/2000/svg">
<path d="M4.35303 5.76505C5.73064 4.06339 7.47722 2.66821 9.47229 1.67573C11.4674 0.683256 13.6635 0.1171 15.9091 0.0163173C18.1547 -0.0844656 20.3965 0.282523 22.4797 1.09197C24.5629 1.90142 26.438 3.13406 27.9757 4.70488L22.8436 9.31408C22.0019 8.45422 20.9754 7.77947 19.8351 7.33638C18.6947 6.89329 17.4676 6.6924 16.2384 6.74757C15.0091 6.80274 13.807 7.11265 12.7149 7.65593C11.6228 8.19921 10.6667 8.96293 9.91258 9.89442L4.35303 5.76505Z" fill="white"/>
<path d="M28.0004 22.6611C26.5585 24.3131 24.7595 25.6459 22.7277 26.5675C20.6959 27.4891 18.4796 27.9776 16.2316 27.9992C13.9837 28.0209 11.7575 27.5753 9.70675 26.6931C7.65599 25.8109 5.82942 24.513 4.35303 22.8892L9.65846 18.4637C10.4666 19.3526 11.4665 20.063 12.5891 20.5459C13.7117 21.0289 14.9303 21.2728 16.1608 21.261C17.3914 21.2491 18.6046 20.9817 19.7168 20.4772C20.829 19.9727 21.8137 19.2432 22.603 18.3389L28.0004 22.6611Z" fill="white"/>
<path d="M12.7827 14.2845L4.2611 20.9893L4.2611 7.57969L12.7827 14.2845Z" fill="#99E39E"/>
<path d="M8.52173 14.2845L0.000111147 20.9893L0.000111759 7.57969L8.52173 14.2845Z" fill="#99E39E"/>
</svg>
