<svg width="228" height="144" viewBox="0 0 228 144" fill="none" xmlns="http://www.w3.org/2000/svg">
<rect x="0.405634" y="0.405634" width="226.749" height="143.189" rx="11.7634" fill="#000510" stroke="url(#paint0_linear_60_94)" stroke-width="0.811267"/>
<mask id="mask0_60_94" style="mask-type:alpha" maskUnits="userSpaceOnUse" x="0" y="0" width="228" height="144">
<rect width="227.561" height="144" rx="12.169" fill="#07051B"/>
</mask>
<g mask="url(#mask0_60_94)">
<g filter="url(#filter0_f_60_94)">
<ellipse cx="94.8415" cy="-85.5907" rx="95.1685" ry="86.8082" transform="rotate(-151.083 94.8415 -85.5907)" fill="#42FF00"/>
</g>
<g filter="url(#filter1_f_60_94)">
<ellipse cx="192.059" cy="-52.3597" rx="95.1685" ry="86.8082" transform="rotate(-151.083 192.059 -52.3597)" fill="#FFF500"/>
</g>
<g filter="url(#filter2_f_60_94)">
<ellipse cx="223.089" cy="15.5127" rx="90.8251" ry="58.7872" transform="rotate(-140.542 223.089 15.5127)" fill="#3BC3EE"/>
</g>
<g filter="url(#filter3_f_60_94)">
<path d="M119.642 -79.0851C185.864 -37.8053 171.366 38.0745 196.099 49.3496C227.19 63.523 254.938 0.164882 243.363 -36.2101C229.719 -79.0863 74.7637 -107.06 119.642 -79.0851Z" fill="#3FF35C"/>
</g>
<g filter="url(#filter4_f_60_94)">
<path d="M224.041 20.5622C244.99 32.1345 260.991 26.4346 269.289 11.4125C286.605 -19.9329 107.84 -133.23 65.3962 -122.559C34.204 -114.717 21.8996 -86.208 38.2867 -64.6191C56.8056 -40.2216 54.3345 -38.5065 83.1605 -33.782C107.212 -29.84 136.215 -28.6693 161.634 -22.5079C185.426 -16.7407 205.433 10.2829 224.041 20.5622Z" fill="#243402"/>
</g>
<g filter="url(#filter5_di_60_94)">
<path d="M15.4058 123.876C15.0434 123.876 14.727 123.809 14.4566 123.674C14.1916 123.533 13.9861 123.333 13.8401 123.073C13.694 122.808 13.621 122.489 13.621 122.116H14.5945C14.5945 122.294 14.6216 122.451 14.6757 122.586C14.7297 122.722 14.8136 122.827 14.9272 122.903C15.0461 122.973 15.1976 123.008 15.3815 123.008C15.5653 123.008 15.7114 122.973 15.8195 122.903C15.9277 122.833 16.0061 122.735 16.0548 122.611C16.1089 122.481 16.1359 122.332 16.1359 122.165V118.1H17.1095V122.165C17.1095 122.716 16.9553 123.141 16.647 123.438C16.3442 123.73 15.9304 123.876 15.4058 123.876ZM19.9675 123.876C19.5781 123.876 19.2266 123.787 18.9129 123.609C18.6046 123.425 18.3612 123.173 18.1827 122.854C18.0097 122.53 17.9231 122.159 17.9231 121.743C17.9231 121.316 18.0124 120.942 18.1909 120.623C18.3693 120.299 18.6127 120.047 18.921 119.869C19.2347 119.685 19.5862 119.593 19.9756 119.593C20.3651 119.593 20.7139 119.685 21.0222 119.869C21.3359 120.047 21.5792 120.296 21.7523 120.615C21.9308 120.934 22.02 121.307 22.02 121.735C22.02 122.162 21.9308 122.535 21.7523 122.854C21.5738 123.173 21.3278 123.425 21.0141 123.609C20.7058 123.787 20.3569 123.876 19.9675 123.876ZM19.9675 123.041C20.1622 123.041 20.338 122.992 20.4949 122.895C20.6571 122.797 20.7869 122.651 20.8843 122.457C20.9816 122.262 21.0303 122.021 21.0303 121.735C21.0303 121.448 20.9816 121.21 20.8843 121.021C20.7923 120.826 20.6652 120.68 20.503 120.583C20.3461 120.485 20.1703 120.437 19.9756 120.437C19.7863 120.437 19.6106 120.485 19.4483 120.583C19.2861 120.68 19.1563 120.826 19.0589 121.021C18.9616 121.21 18.9129 121.448 18.9129 121.735C18.9129 122.021 18.9616 122.262 19.0589 122.457C19.1563 122.651 19.2834 122.797 19.4402 122.895C19.6025 122.992 19.7782 123.041 19.9675 123.041ZM22.8108 123.779V117.938H23.7843V120.323C23.9195 120.101 24.1034 119.926 24.336 119.796C24.5685 119.661 24.8308 119.593 25.1229 119.593C25.4582 119.593 25.7421 119.663 25.9747 119.804C26.2073 119.939 26.383 120.142 26.502 120.412C26.6264 120.677 26.6886 121.01 26.6886 121.41V123.779H25.7232V121.499C25.7232 121.148 25.6475 120.88 25.4961 120.696C25.35 120.512 25.1256 120.42 24.8227 120.42C24.628 120.42 24.4522 120.469 24.2954 120.566C24.1385 120.658 24.0141 120.794 23.9222 120.972C23.8303 121.145 23.7843 121.359 23.7843 121.613V123.779H22.8108ZM27.5605 123.779V119.69H28.4204L28.4934 120.372C28.6178 120.134 28.7963 119.944 29.0289 119.804C29.2614 119.663 29.5373 119.593 29.8564 119.593C30.1863 119.593 30.4675 119.663 30.7001 119.804C30.9327 119.939 31.1111 120.139 31.2355 120.404C31.3653 120.669 31.4302 120.999 31.4302 121.394V123.779H30.4567V121.483C30.4567 121.142 30.381 120.88 30.2296 120.696C30.0781 120.512 29.8537 120.42 29.5562 120.42C29.3615 120.42 29.1857 120.466 29.0289 120.558C28.8774 120.65 28.7558 120.785 28.6638 120.964C28.5773 121.137 28.534 121.348 28.534 121.597V123.779H27.5605ZM36.6682 123.876C36.1058 123.876 35.619 123.755 35.2079 123.511C34.8023 123.263 34.4886 122.919 34.2669 122.481C34.0505 122.038 33.9424 121.526 33.9424 120.948C33.9424 120.364 34.0505 119.853 34.2669 119.414C34.4886 118.971 34.8023 118.625 35.2079 118.376C35.619 118.127 36.1058 118.003 36.6682 118.003C37.3443 118.003 37.8959 118.17 38.3232 118.506C38.7505 118.836 39.0209 119.304 39.1345 119.909H38.0636C37.9879 119.59 37.8337 119.339 37.6012 119.155C37.3686 118.971 37.0549 118.879 36.6601 118.879C36.3032 118.879 35.9949 118.963 35.7353 119.13C35.4811 119.293 35.2837 119.531 35.143 119.844C35.0078 120.153 34.9402 120.52 34.9402 120.948C34.9402 121.375 35.0078 121.743 35.143 122.051C35.2837 122.354 35.4811 122.589 35.7353 122.757C35.9949 122.919 36.3032 123 36.6601 123C37.0549 123 37.3686 122.916 37.6012 122.749C37.8337 122.576 37.9879 122.338 38.0636 122.035H39.1345C39.0263 122.608 38.7559 123.06 38.3232 123.39C37.8959 123.714 37.3443 123.876 36.6682 123.876ZM41.2553 123.876C40.92 123.876 40.6415 123.82 40.4197 123.706C40.198 123.592 40.033 123.441 39.9248 123.252C39.8167 123.062 39.7626 122.857 39.7626 122.635C39.7626 122.376 39.8275 122.151 39.9573 121.962C40.0925 121.773 40.2899 121.626 40.5495 121.524C40.8091 121.416 41.1282 121.361 41.5068 121.361H42.5371C42.5371 121.145 42.5074 120.967 42.4479 120.826C42.3884 120.68 42.2964 120.572 42.172 120.502C42.0476 120.431 41.8881 120.396 41.6934 120.396C41.4716 120.396 41.2824 120.447 41.1255 120.55C40.9687 120.648 40.8713 120.799 40.8335 121.005H39.8762C39.9086 120.712 40.006 120.464 40.1682 120.258C40.3305 120.047 40.5441 119.885 40.8091 119.771C41.0795 119.652 41.3743 119.593 41.6934 119.593C42.0774 119.593 42.4046 119.661 42.675 119.796C42.9455 119.926 43.151 120.115 43.2916 120.364C43.4376 120.607 43.5106 120.902 43.5106 121.248V123.779H42.6831L42.5858 123.122C42.5317 123.23 42.4614 123.33 42.3749 123.422C42.2937 123.514 42.1991 123.595 42.0909 123.665C41.9827 123.73 41.8584 123.782 41.7177 123.82C41.5825 123.857 41.4284 123.876 41.2553 123.876ZM41.4744 123.106C41.6312 123.106 41.7691 123.079 41.8881 123.025C42.0125 122.965 42.118 122.884 42.2045 122.781C42.2964 122.673 42.3667 122.554 42.4154 122.424C42.4641 122.294 42.4966 122.157 42.5128 122.01V121.994H41.6123C41.423 121.994 41.2661 122.019 41.1417 122.067C41.0173 122.111 40.9281 122.175 40.874 122.262C40.8199 122.349 40.7929 122.449 40.7929 122.562C40.7929 122.676 40.8199 122.773 40.874 122.854C40.9281 122.935 41.0065 122.998 41.1093 123.041C41.212 123.084 41.3337 123.106 41.4744 123.106ZM44.3886 123.779V119.69H45.2566L45.3459 120.453C45.4432 120.274 45.5649 120.123 45.7109 119.999C45.857 119.869 46.0273 119.769 46.222 119.698C46.4222 119.628 46.6412 119.593 46.8792 119.593V120.623H46.5384C46.3762 120.623 46.222 120.645 46.076 120.688C45.93 120.726 45.8029 120.791 45.6947 120.883C45.592 120.969 45.5108 121.091 45.4513 121.248C45.3918 121.399 45.3621 121.591 45.3621 121.824V123.779H44.3886ZM49.2275 123.779C48.9516 123.779 48.711 123.736 48.5054 123.649C48.3053 123.563 48.1485 123.419 48.0349 123.219C47.9213 123.019 47.8645 122.749 47.8645 122.408V120.51H47.1669V119.69H47.8645L47.9781 118.611H48.8381V119.69H49.9495V120.51H48.8381V122.408C48.8381 122.614 48.8813 122.757 48.9679 122.838C49.0598 122.914 49.2112 122.952 49.4222 122.952H49.9252V123.779H49.2275ZM52.5148 123.876C52.1091 123.876 51.7522 123.79 51.4439 123.617C51.1356 123.438 50.8949 123.19 50.7219 122.87C50.5488 122.551 50.4622 122.184 50.4622 121.767C50.4622 121.334 50.5461 120.956 50.7137 120.631C50.8868 120.307 51.1275 120.053 51.4358 119.869C51.7495 119.685 52.1118 119.593 52.5229 119.593C52.9231 119.593 53.2719 119.682 53.5694 119.861C53.8669 120.039 54.0967 120.28 54.259 120.583C54.4212 120.88 54.5024 121.215 54.5024 121.589C54.5024 121.643 54.5024 121.702 54.5024 121.767C54.5024 121.832 54.497 121.9 54.4861 121.97H51.1599V121.345H53.5207C53.5099 121.048 53.4099 120.815 53.2206 120.648C53.0313 120.474 52.796 120.388 52.5148 120.388C52.3146 120.388 52.1308 120.434 51.9631 120.526C51.7954 120.618 51.6629 120.756 51.5656 120.94C51.4682 121.118 51.4195 121.345 51.4195 121.621V121.856C51.4195 122.111 51.4655 122.33 51.5575 122.513C51.6548 122.697 51.7846 122.838 51.9469 122.935C52.1145 123.027 52.3011 123.073 52.5066 123.073C52.7338 123.073 52.9204 123.025 53.0664 122.927C53.2179 122.83 53.3287 122.7 53.399 122.538H54.3888C54.3131 122.792 54.1887 123.022 54.0156 123.227C53.8425 123.428 53.6289 123.587 53.3747 123.706C53.1205 123.82 52.8339 123.876 52.5148 123.876ZM55.239 123.779V119.69H56.107L56.1963 120.453C56.2936 120.274 56.4153 120.123 56.5613 119.999C56.7074 119.869 56.8777 119.769 57.0724 119.698C57.2725 119.628 57.4916 119.593 57.7296 119.593V120.623H57.3888C57.2266 120.623 57.0724 120.645 56.9264 120.688C56.7804 120.726 56.6533 120.791 56.5451 120.883C56.4423 120.969 56.3612 121.091 56.3017 121.248C56.2422 121.399 56.2125 121.591 56.2125 121.824V123.779H55.239Z" fill="white"/>
</g>
<path d="M15.2415 111.943C14.8967 111.943 14.5986 111.852 14.3471 111.669C14.0997 111.487 13.909 111.231 13.7752 110.902C13.6453 110.574 13.5804 110.186 13.5804 109.74C13.5804 109.298 13.6453 108.913 13.7752 108.584C13.909 108.252 14.0997 107.994 14.3471 107.811C14.5986 107.629 14.8967 107.538 15.2415 107.538C15.6796 107.538 16.0325 107.659 16.3002 107.903C16.5679 108.142 16.7241 108.463 16.7687 108.864H16.2029C16.1623 108.625 16.0609 108.424 15.8986 108.262C15.7364 108.099 15.5173 108.018 15.2415 108.018C14.8886 108.018 14.6108 108.172 14.4079 108.481C14.2051 108.785 14.1037 109.205 14.1037 109.74C14.1037 110.28 14.2051 110.702 14.4079 111.006C14.6108 111.31 14.8886 111.462 15.2415 111.462C15.5295 111.462 15.7506 111.385 15.9047 111.231C16.0629 111.077 16.1623 110.878 16.2029 110.635H16.7687C16.7038 111.04 16.5416 111.361 16.282 111.596C16.0264 111.827 15.6796 111.943 15.2415 111.943ZM17.4782 111.87L18.8107 107.611H19.4009L20.7274 111.87H20.1676L19.8573 110.811H18.3483L18.038 111.87H17.4782ZM19.0906 108.329L18.4761 110.385H19.7295L19.115 108.329H19.0906ZM21.6681 111.87V107.611H22.9763C23.3048 107.611 23.5746 107.665 23.7855 107.775C24.0005 107.884 24.1607 108.035 24.2662 108.225C24.3716 108.412 24.4244 108.625 24.4244 108.864C24.4244 109.144 24.3514 109.391 24.2053 109.606C24.0634 109.817 23.8443 109.965 23.5482 110.051L24.473 111.87H23.8646L23.0067 110.124H22.9763H22.1792V111.87H21.6681ZM22.1792 109.655H22.958C23.2825 109.655 23.5198 109.582 23.6699 109.436C23.824 109.286 23.9011 109.095 23.9011 108.864C23.9011 108.621 23.8261 108.428 23.676 108.286C23.5299 108.144 23.2886 108.073 22.9519 108.073H22.1792V109.655ZM25.4624 111.87V107.611H26.3569C27.0546 107.611 27.5697 107.801 27.9023 108.183C28.239 108.564 28.4073 109.083 28.4073 109.74C28.4073 110.397 28.239 110.917 27.9023 111.298C27.5697 111.679 27.0546 111.87 26.3569 111.87H25.4624ZM25.9735 111.401H26.3447C26.7179 111.401 27.016 111.332 27.2391 111.194C27.4663 111.057 27.6306 110.864 27.732 110.616C27.8334 110.369 27.8841 110.077 27.8841 109.74C27.8841 109.404 27.8334 109.112 27.732 108.864C27.6306 108.617 27.4663 108.424 27.2391 108.286C27.016 108.148 26.7179 108.079 26.3447 108.079H25.9735V111.401ZM33.1303 111.87V107.611H33.6413V109.448H35.704V107.611H36.2151V111.87H35.704V109.911H33.6413V111.87H33.1303ZM38.5613 111.943C38.2165 111.943 37.9204 111.852 37.673 111.669C37.4256 111.487 37.2349 111.231 37.1011 110.902C36.9713 110.57 36.9064 110.182 36.9064 109.74C36.9064 109.298 36.9713 108.913 37.1011 108.584C37.2349 108.252 37.4256 107.994 37.673 107.811C37.9204 107.629 38.2165 107.538 38.5613 107.538C38.9061 107.538 39.2022 107.629 39.4497 107.811C39.6971 107.994 39.8857 108.252 40.0155 108.584C40.1494 108.913 40.2163 109.298 40.2163 109.74C40.2163 110.182 40.1494 110.57 40.0155 110.902C39.8857 111.231 39.6971 111.487 39.4497 111.669C39.2022 111.852 38.9061 111.943 38.5613 111.943ZM38.5613 111.462C38.898 111.462 39.1698 111.312 39.3767 111.012C39.5876 110.712 39.6931 110.288 39.6931 109.74C39.6931 109.193 39.5876 108.769 39.3767 108.469C39.1698 108.168 38.898 108.018 38.5613 108.018C38.2206 108.018 37.9468 108.168 37.7399 108.469C37.5331 108.769 37.4296 109.193 37.4296 109.74C37.4296 110.288 37.5331 110.712 37.7399 111.012C37.9468 111.312 38.2206 111.462 38.5613 111.462ZM41.157 111.87V107.611H41.6681V111.407H43.8281V111.87H41.157ZM44.921 111.87V107.611H45.8154C46.5131 107.611 47.0282 107.801 47.3609 108.183C47.6975 108.564 47.8659 109.083 47.8659 109.74C47.8659 110.397 47.6975 110.917 47.3609 111.298C47.0282 111.679 46.5131 111.87 45.8154 111.87H44.921ZM45.4321 111.401H45.8032C46.1764 111.401 46.4746 111.332 46.6977 111.194C46.9248 111.057 47.0891 110.864 47.1905 110.616C47.2919 110.369 47.3426 110.077 47.3426 109.74C47.3426 109.404 47.2919 109.112 47.1905 108.864C47.0891 108.617 46.9248 108.424 46.6977 108.286C46.4746 108.148 46.1764 108.079 45.8032 108.079H45.4321V111.401ZM48.9344 111.87V107.611H51.5933V108.073H49.4455V109.491H51.4108V109.953H49.4455V111.407H51.5933V111.87H48.9344ZM52.8017 111.87V107.611H54.1099C54.4385 107.611 54.7082 107.665 54.9192 107.775C55.1341 107.884 55.2944 108.035 55.3998 108.225C55.5053 108.412 55.558 108.625 55.558 108.864C55.558 109.144 55.485 109.391 55.339 109.606C55.197 109.817 54.978 109.965 54.6819 110.051L55.6067 111.87H54.9983L54.1403 110.124H54.1099H53.3128V111.87H52.8017ZM53.3128 109.655H54.0917C54.4162 109.655 54.6535 109.582 54.8035 109.436C54.9577 109.286 55.0348 109.095 55.0348 108.864C55.0348 108.621 54.9597 108.428 54.8096 108.286C54.6636 108.144 54.4223 108.073 54.0856 108.073H53.3128V109.655ZM60.433 111.87V107.611H60.9563L62.8912 110.975V107.611H63.3962V111.87H62.8669L60.932 108.505V111.87H60.433ZM64.1787 111.87L65.5112 107.611H66.1014L67.4279 111.87H66.8681L66.5578 110.811H65.0488L64.7385 111.87H64.1787ZM65.7911 108.329L65.1766 110.385H66.43L65.8155 108.329H65.7911ZM68.1739 111.87V107.611H68.7215L69.695 109.637L70.6685 107.611H71.2161V111.87H70.7172V108.596L69.8897 110.318H69.5003L68.6728 108.602V111.87H68.1739ZM72.2846 111.87V107.611H74.9435V108.073H72.7957V109.491H74.761V109.953H72.7957V111.407H74.9435V111.87H72.2846Z" fill="white" fill-opacity="0.6"/>
<path d="M104.771 111.87V107.611H107.43V108.073H105.282V109.491H107.247V109.953H105.282V111.407H107.43V111.87H104.771ZM108.145 111.87L109.429 109.74L108.145 107.611H108.73L109.734 109.278L110.713 107.611H111.297L110.007 109.734L111.297 111.87H110.713L109.703 110.197L108.73 111.87H108.145ZM111.995 111.87V107.611H113.412C113.737 107.611 114.002 107.67 114.209 107.787C114.416 107.905 114.568 108.061 114.666 108.256C114.763 108.45 114.812 108.665 114.812 108.901C114.812 109.136 114.763 109.351 114.666 109.546C114.568 109.74 114.416 109.896 114.209 110.014C114.002 110.132 113.737 110.191 113.412 110.191H112.506V111.87H111.995ZM112.506 109.722H113.4C113.7 109.722 113.923 109.647 114.069 109.497C114.215 109.343 114.288 109.144 114.288 108.901C114.288 108.657 114.215 108.458 114.069 108.304C113.923 108.15 113.7 108.073 113.4 108.073H112.506V109.722ZM115.795 111.87V111.426H116.762V108.055H115.795V107.611H118.241V108.055H117.274V111.426H118.241V111.87H115.795ZM119.34 111.87V107.611H120.648C120.977 107.611 121.246 107.665 121.457 107.775C121.672 107.884 121.833 108.035 121.938 108.225C122.043 108.412 122.096 108.625 122.096 108.864C122.096 109.144 122.023 109.391 121.877 109.606C121.735 109.817 121.516 109.965 121.22 110.051L122.145 111.87H121.536L120.679 110.124H120.648H119.851V111.87H119.34ZM119.851 109.655H120.63C120.954 109.655 121.192 109.582 121.342 109.436C121.496 109.286 121.573 109.095 121.573 108.864C121.573 108.621 121.498 108.428 121.348 108.286C121.202 108.144 120.96 108.073 120.624 108.073H119.851V109.655ZM124.059 111.87V110.197L122.678 107.611H123.256L124.315 109.679L125.373 107.611H125.951L124.57 110.197V111.87H124.059ZM130.188 111.87V107.611H131.082C131.78 107.611 132.295 107.801 132.627 108.183C132.964 108.564 133.132 109.083 133.132 109.74C133.132 110.397 132.964 110.917 132.627 111.298C132.295 111.679 131.78 111.87 131.082 111.87H130.188ZM130.699 111.401H131.07C131.443 111.401 131.741 111.332 131.964 111.194C132.191 111.057 132.356 110.864 132.457 110.616C132.558 110.369 132.609 110.077 132.609 109.74C132.609 109.404 132.558 109.112 132.457 108.864C132.356 108.617 132.191 108.424 131.964 108.286C131.741 108.148 131.443 108.079 131.07 108.079H130.699V111.401ZM133.635 111.87L134.968 107.611H135.558L136.884 111.87H136.324L136.014 110.811H134.505L134.195 111.87H133.635ZM135.247 108.329L134.633 110.385H135.886L135.272 108.329H135.247ZM138.652 111.87V108.073H137.509V107.611H140.307V108.073H139.164V111.87H138.652ZM141.254 111.87V107.611H143.913V108.073H141.765V109.491H143.731V109.953H141.765V111.407H143.913V111.87H141.254Z" fill="white" fill-opacity="0.6"/>
<g filter="url(#filter6_di_60_94)">
<path d="M107.087 123.703C106.573 123.703 106.133 123.581 105.765 123.338C105.397 123.089 105.113 122.746 104.913 122.308C104.718 121.864 104.621 121.35 104.621 120.766C104.621 120.182 104.718 119.671 104.913 119.233C105.113 118.789 105.397 118.446 105.765 118.203C106.133 117.954 106.573 117.829 107.087 117.829C107.596 117.829 108.031 117.954 108.393 118.203C108.761 118.446 109.042 118.789 109.237 119.233C109.437 119.671 109.537 120.182 109.537 120.766C109.537 121.35 109.437 121.864 109.237 122.308C109.042 122.746 108.761 123.089 108.393 123.338C108.031 123.581 107.596 123.703 107.087 123.703ZM107.079 122.827C107.366 122.827 107.62 122.746 107.842 122.583C108.063 122.416 108.234 122.178 108.353 121.869C108.477 121.561 108.539 121.193 108.539 120.766C108.539 120.339 108.477 119.971 108.353 119.663C108.234 119.355 108.063 119.119 107.842 118.957C107.62 118.789 107.366 118.706 107.079 118.706C106.792 118.706 106.538 118.789 106.316 118.957C106.095 119.119 105.922 119.355 105.797 119.663C105.678 119.971 105.619 120.339 105.619 120.766C105.619 121.193 105.678 121.561 105.797 121.869C105.922 122.178 106.095 122.416 106.316 122.583C106.538 122.746 106.792 122.827 107.079 122.827ZM110.465 123.606V122.9C110.827 122.613 111.174 122.326 111.504 122.04C111.833 121.753 112.131 121.469 112.396 121.188C112.661 120.907 112.869 120.631 113.021 120.361C113.172 120.09 113.248 119.83 113.248 119.582C113.248 119.419 113.218 119.268 113.159 119.127C113.099 118.987 113.004 118.873 112.875 118.787C112.75 118.7 112.583 118.657 112.372 118.657C112.166 118.657 111.99 118.703 111.844 118.795C111.704 118.887 111.598 119.011 111.528 119.168C111.458 119.319 111.422 119.492 111.422 119.687H110.481C110.492 119.276 110.581 118.933 110.749 118.657C110.917 118.381 111.144 118.176 111.431 118.04C111.717 117.9 112.039 117.829 112.396 117.829C112.78 117.829 113.107 117.9 113.378 118.04C113.648 118.181 113.856 118.378 114.002 118.633C114.148 118.887 114.221 119.187 114.221 119.533C114.221 119.787 114.173 120.039 114.075 120.288C113.983 120.531 113.853 120.769 113.686 121.001C113.518 121.229 113.329 121.45 113.118 121.667C112.912 121.878 112.699 122.08 112.477 122.275C112.255 122.464 112.042 122.64 111.836 122.802H114.375V123.606H110.465ZM115.066 124.482L117.102 117.318H118.052L116.015 124.482H115.066ZM120.549 123.703C120.181 123.703 119.846 123.638 119.543 123.508C119.24 123.373 118.997 123.17 118.813 122.9C118.634 122.624 118.54 122.278 118.529 121.861H119.486C119.492 122.051 119.535 122.224 119.616 122.381C119.703 122.532 119.824 122.654 119.981 122.746C120.138 122.832 120.327 122.875 120.549 122.875C120.76 122.875 120.938 122.835 121.084 122.754C121.236 122.673 121.349 122.562 121.425 122.421C121.501 122.281 121.539 122.124 121.539 121.951C121.539 121.74 121.487 121.567 121.385 121.431C121.282 121.291 121.141 121.185 120.963 121.115C120.784 121.045 120.581 121.01 120.354 121.01H119.932V120.206H120.354C120.652 120.206 120.895 120.139 121.084 120.004C121.274 119.863 121.368 119.66 121.368 119.395C121.368 119.173 121.295 118.995 121.149 118.86C121.009 118.724 120.806 118.657 120.541 118.657C120.265 118.657 120.046 118.738 119.884 118.9C119.727 119.062 119.64 119.263 119.624 119.501H118.667C118.683 119.16 118.77 118.865 118.926 118.616C119.089 118.362 119.308 118.167 119.584 118.032C119.859 117.897 120.181 117.829 120.549 117.829C120.933 117.829 121.258 117.897 121.523 118.032C121.788 118.167 121.988 118.349 122.123 118.576C122.264 118.803 122.334 119.052 122.334 119.322C122.334 119.533 122.293 119.725 122.212 119.898C122.131 120.071 122.02 120.217 121.88 120.336C121.744 120.45 121.585 120.534 121.401 120.588C121.612 120.631 121.798 120.715 121.961 120.839C122.128 120.964 122.258 121.123 122.35 121.318C122.447 121.507 122.496 121.729 122.496 121.983C122.496 122.291 122.42 122.578 122.269 122.843C122.123 123.103 121.904 123.311 121.612 123.468C121.325 123.625 120.971 123.703 120.549 123.703ZM125.99 123.703C125.476 123.703 125.035 123.581 124.667 123.338C124.3 123.089 124.016 122.746 123.815 122.308C123.621 121.864 123.523 121.35 123.523 120.766C123.523 120.182 123.621 119.671 123.815 119.233C124.016 118.789 124.3 118.446 124.667 118.203C125.035 117.954 125.476 117.829 125.99 117.829C126.498 117.829 126.933 117.954 127.296 118.203C127.664 118.446 127.945 118.789 128.14 119.233C128.34 119.671 128.44 120.182 128.44 120.766C128.44 121.35 128.34 121.864 128.14 122.308C127.945 122.746 127.664 123.089 127.296 123.338C126.933 123.581 126.498 123.703 125.99 123.703ZM125.982 122.827C126.268 122.827 126.522 122.746 126.744 122.583C126.966 122.416 127.136 122.178 127.255 121.869C127.38 121.561 127.442 121.193 127.442 120.766C127.442 120.339 127.38 119.971 127.255 119.663C127.136 119.355 126.966 119.119 126.744 118.957C126.522 118.789 126.268 118.706 125.982 118.706C125.695 118.706 125.441 118.789 125.219 118.957C124.997 119.119 124.824 119.355 124.7 119.663C124.581 119.971 124.521 120.339 124.521 120.766C124.521 121.193 124.581 121.561 124.7 121.869C124.824 122.178 124.997 122.416 125.219 122.583C125.441 122.746 125.695 122.827 125.982 122.827Z" fill="white"/>
</g>
<g filter="url(#filter7_di_60_94)">
<path d="M18.087 87.7932C17.378 87.7932 16.7357 87.6597 16.1603 87.3925C15.5848 87.1253 15.1275 86.7348 14.7884 86.221C14.4493 85.6969 14.2643 85.065 14.2335 84.3251H15.8674C15.8982 84.8903 16.1038 85.3578 16.484 85.7278C16.8745 86.0977 17.4088 86.2827 18.087 86.2827C18.755 86.2827 19.2791 86.1182 19.6593 85.7894C20.0395 85.4606 20.2296 85.0084 20.2296 84.433C20.2296 83.7959 19.9984 83.3283 19.536 83.0303C19.0735 82.7323 18.5084 82.5833 17.8404 82.5833H16.8847V81.1344H17.7017C18.308 81.1344 18.8064 81.011 19.1969 80.7644C19.5873 80.5178 19.7826 80.1324 19.7826 79.6084C19.7826 79.1562 19.6336 78.8017 19.3356 78.5448C19.0376 78.2776 18.6163 78.144 18.0716 78.144C17.5167 78.144 17.0748 78.293 16.746 78.591C16.4172 78.889 16.2322 79.2693 16.1911 79.7317H14.5726C14.6035 79.1151 14.7679 78.5756 15.0659 78.1132C15.3639 77.6508 15.7698 77.2911 16.2836 77.0342C16.7974 76.767 17.3934 76.6334 18.0716 76.6334C18.8115 76.6334 19.4281 76.7619 19.9213 77.0188C20.4146 77.2654 20.7845 77.5994 21.0311 78.0207C21.2778 78.442 21.4011 78.9147 21.4011 79.4388C21.4011 79.9732 21.2418 80.4356 20.9232 80.8261C20.6149 81.2063 20.2399 81.4837 19.798 81.6584V81.7509C20.394 81.9153 20.8821 82.2236 21.2623 82.6758C21.6528 83.1176 21.8481 83.7137 21.8481 84.4638C21.8481 85.0701 21.6991 85.6301 21.4011 86.1439C21.1133 86.6475 20.6869 87.0482 20.1217 87.3462C19.5668 87.6442 18.8886 87.7932 18.087 87.7932ZM29.0558 87.6083V85.2807H23.9384V84.0014L28.763 76.8184H30.6897V83.801H32.0924V85.2807H30.6897V87.6083H29.0558ZM25.7572 83.801H29.1483V78.6527L25.7572 83.801ZM37.7125 87.7932C36.9624 87.7932 36.3099 87.6545 35.7549 87.3771C35.2 87.0996 34.7633 86.7194 34.4448 86.2364C34.1365 85.7534 33.9566 85.2088 33.9053 84.6025H35.57C35.6727 85.1061 35.9091 85.512 36.279 85.8202C36.6592 86.1285 37.1422 86.2827 37.728 86.2827C38.4164 86.2827 38.9611 86.0669 39.3618 85.6353C39.7626 85.1934 39.963 84.6282 39.963 83.9397C39.963 83.2101 39.7575 82.6449 39.3464 82.2442C38.9354 81.8434 38.4113 81.643 37.7742 81.643C37.2604 81.643 36.8237 81.7612 36.464 81.9975C36.1043 82.2339 35.8217 82.5319 35.6162 82.8916H34.044L34.9688 76.8184H40.8416V78.329H36.2328L35.7087 81.0881H35.8166C36.0324 80.8415 36.3201 80.636 36.6798 80.4716C37.0497 80.3071 37.4865 80.2249 37.99 80.2249C38.7299 80.2249 39.3618 80.3842 39.8859 80.7028C40.4203 81.0213 40.8313 81.4632 41.119 82.0284C41.4068 82.5833 41.5506 83.2153 41.5506 83.9243C41.5506 84.6436 41.3914 85.2962 41.0728 85.8819C40.7645 86.4676 40.3227 86.9352 39.7472 87.2846C39.1717 87.6237 38.4935 87.7932 37.7125 87.7932ZM47.5715 87.7932C46.8214 87.7932 46.1688 87.6545 45.6139 87.3771C45.059 87.0996 44.6223 86.7194 44.3037 86.2364C43.9955 85.7534 43.8156 85.2088 43.7643 84.6025H45.429C45.5317 85.1061 45.7681 85.512 46.138 85.8202C46.5182 86.1285 47.0012 86.2827 47.5869 86.2827C48.2754 86.2827 48.8201 86.0669 49.2208 85.6353C49.6216 85.1934 49.822 84.6282 49.822 83.9397C49.822 83.2101 49.6165 82.6449 49.2054 82.2442C48.7944 81.8434 48.2703 81.643 47.6332 81.643C47.1194 81.643 46.6827 81.7612 46.323 81.9975C45.9633 82.2339 45.6807 82.5319 45.4752 82.8916H43.903L44.8278 76.8184H50.7006V78.329H46.0918L45.5677 81.0881H45.6756C45.8914 80.8415 46.1791 80.636 46.5388 80.4716C46.9087 80.3071 47.3455 80.2249 47.849 80.2249C48.5889 80.2249 49.2208 80.3842 49.7449 80.7028C50.2793 81.0213 50.6903 81.4632 50.978 82.0284C51.2658 82.5833 51.4096 83.2153 51.4096 83.9243C51.4096 84.6436 51.2504 85.2962 50.9318 85.8819C50.6235 86.4676 50.1816 86.9352 49.6062 87.2846C49.0307 87.6237 48.3525 87.7932 47.5715 87.7932ZM68.4918 87.6083V85.2807H63.3743V84.0014L68.1989 76.8184H70.1257V83.801H71.5284V85.2807H70.1257V87.6083H68.4918ZM65.1932 83.801H68.5843V78.6527L65.1932 83.801ZM77.1485 87.7932C76.3984 87.7932 75.7458 87.6545 75.1909 87.3771C74.636 87.0996 74.1993 86.7194 73.8807 86.2364C73.5724 85.7534 73.3926 85.2088 73.3412 84.6025H75.0059C75.1087 85.1061 75.3451 85.512 75.715 85.8202C76.0952 86.1285 76.5782 86.2827 77.1639 86.2827C77.8524 86.2827 78.397 86.0669 78.7978 85.6353C79.1986 85.1934 79.399 84.6282 79.399 83.9397C79.399 83.2101 79.1934 82.6449 78.7824 82.2442C78.3714 81.8434 77.8473 81.643 77.2102 81.643C76.6964 81.643 76.2596 81.7612 75.9 81.9975C75.5403 82.2339 75.2577 82.5319 75.0522 82.8916H73.48L74.4048 76.8184H80.2776V78.329H75.6688L75.1447 81.0881H75.2526C75.4684 80.8415 75.7561 80.636 76.1158 80.4716C76.4857 80.3071 76.9224 80.2249 77.426 80.2249C78.1658 80.2249 78.7978 80.3842 79.3219 80.7028C79.8562 81.0213 80.2673 81.4632 80.555 82.0284C80.8427 82.5833 80.9866 83.2153 80.9866 83.9243C80.9866 84.6436 80.8273 85.2962 80.5088 85.8819C80.2005 86.4676 79.7586 86.9352 79.1832 87.2846C78.6077 87.6237 77.9295 87.7932 77.1485 87.7932ZM87.2387 87.7932C86.4783 87.7932 85.836 87.6545 85.312 87.3771C84.7879 87.0893 84.3614 86.704 84.0326 86.221C83.714 85.738 83.4777 85.1883 83.3235 84.5717C83.1797 83.9449 83.1077 83.2872 83.1077 82.5987C83.1077 81.4067 83.2722 80.3637 83.601 79.4696C83.9401 78.5756 84.4231 77.882 85.0499 77.3887C85.6768 76.8852 86.432 76.6334 87.3158 76.6334C88.0454 76.6334 88.6568 76.767 89.1501 77.0342C89.6536 77.2911 90.0441 77.6508 90.3215 78.1132C90.6093 78.5653 90.784 79.0843 90.8456 79.67H89.3196C89.2169 79.187 88.9856 78.8068 88.626 78.5294C88.2663 78.2519 87.8244 78.1132 87.3004 78.1132C86.6119 78.1132 86.0159 78.442 85.5123 79.0997C85.0088 79.7471 84.7262 80.7644 84.6646 82.1517H84.757C84.9728 81.7612 85.312 81.417 85.7744 81.1189C86.2471 80.8209 86.8071 80.6719 87.4545 80.6719C88.0813 80.6719 88.6517 80.8209 89.1655 81.1189C89.6793 81.4067 90.0852 81.8126 90.3832 82.3367C90.6915 82.8607 90.8456 83.467 90.8456 84.1555C90.8456 84.8029 90.6966 85.4041 90.3986 85.959C90.1109 86.5139 89.6947 86.9609 89.1501 87.3C88.6157 87.6288 87.9786 87.7932 87.2387 87.7932ZM87.1308 86.3135C87.7577 86.3135 88.2612 86.1182 88.6414 85.7278C89.0319 85.3373 89.2271 84.8389 89.2271 84.2326C89.2271 83.6263 89.0319 83.1279 88.6414 82.7374C88.2612 82.3367 87.7577 82.1363 87.1308 82.1363C86.504 82.1363 85.9902 82.3315 85.5894 82.722C85.1989 83.1125 85.0037 83.6109 85.0037 84.2172C85.0037 84.8132 85.1989 85.3116 85.5894 85.7123C85.9902 86.1131 86.504 86.3135 87.1308 86.3135ZM93.3367 87.6083V86.3135C94.3951 85.4709 95.3199 84.695 96.1112 83.986C96.9127 83.2769 97.5396 82.5936 97.9917 81.9359C98.4439 81.2782 98.6699 80.6103 98.6699 79.9321C98.6699 79.3669 98.5107 78.925 98.1921 78.6065C97.8735 78.2776 97.4419 78.1132 96.8973 78.1132C96.2705 78.1132 95.7875 78.3136 95.4484 78.7144C95.1093 79.1048 94.9397 79.5724 94.9397 80.117H93.3521C93.3624 79.3566 93.5216 78.7195 93.8299 78.2057C94.1382 77.6919 94.5544 77.3014 95.0785 77.0342C95.6128 76.767 96.2191 76.6334 96.8973 76.6334C97.9969 76.6334 98.8446 76.9315 99.4406 77.5275C100.037 78.1132 100.335 78.8993 100.335 79.8858C100.335 80.5127 100.196 81.1189 99.9185 81.7047C99.6513 82.2801 99.2968 82.8299 98.8549 83.354C98.413 83.8781 97.9198 84.3765 97.3752 84.8492C96.8408 85.3219 96.3013 85.774 95.7567 86.2056H100.628V87.6083H93.3367ZM114.442 87.6083L118.527 78.2982H112.885V76.8184H120.207V78.0824L116.153 87.6083H114.442ZM124.301 87.6083L128.386 78.2982H122.744V76.8184H130.066V78.0824L126.012 87.6083H124.301ZM132.711 87.6083V86.1439H135.378V78.7452L132.834 79.2076V77.882L136.01 76.8184H137.012V86.1439H139.879V87.6083H132.711ZM146.177 87.7932C145.345 87.7932 144.615 87.5672 143.988 87.115C143.372 86.6629 142.894 86.0206 142.555 85.1883C142.215 84.3456 142.046 83.354 142.046 82.2133C142.046 81.0624 142.215 80.0708 142.555 79.2384C142.894 78.4061 143.372 77.7638 143.988 77.3117C144.615 76.8595 145.345 76.6334 146.177 76.6334C147.02 76.6334 147.749 76.8595 148.366 77.3117C148.982 77.7638 149.46 78.4061 149.799 79.2384C150.138 80.0708 150.308 81.0624 150.308 82.2133C150.308 83.354 150.138 84.3456 149.799 85.1883C149.46 86.0206 148.982 86.6629 148.366 87.115C147.749 87.5672 147.02 87.7932 146.177 87.7932ZM143.711 82.2133C143.711 82.7888 143.762 83.3129 143.865 83.7856C143.968 84.2583 144.111 84.6693 144.296 85.0187L146.994 78.3444C146.737 78.2211 146.465 78.1594 146.177 78.1594C145.458 78.1594 144.867 78.5242 144.404 79.2538C143.942 79.9732 143.711 80.9597 143.711 82.2133ZM146.177 86.2827C146.66 86.2827 147.086 86.1182 147.456 85.7894C147.826 85.4606 148.114 84.993 148.319 84.3867C148.535 83.7702 148.643 83.0457 148.643 82.2133C148.643 81.6379 148.592 81.1138 148.489 80.6411C148.386 80.1684 148.242 79.7625 148.057 79.4234L145.36 86.0977C145.617 86.221 145.889 86.2827 146.177 86.2827ZM165.972 87.7932C165.263 87.7932 164.621 87.6597 164.045 87.3925C163.47 87.1253 163.012 86.7348 162.673 86.221C162.334 85.6969 162.149 85.065 162.118 84.3251H163.752C163.783 84.8903 163.989 85.3578 164.369 85.7278C164.759 86.0977 165.294 86.2827 165.972 86.2827C166.64 86.2827 167.164 86.1182 167.544 85.7894C167.924 85.4606 168.114 85.0084 168.114 84.433C168.114 83.7959 167.883 83.3283 167.421 83.0303C166.958 82.7323 166.393 82.5833 165.725 82.5833H164.77V81.1344H165.587C166.193 81.1344 166.691 81.011 167.082 80.7644C167.472 80.5178 167.667 80.1324 167.667 79.6084C167.667 79.1562 167.518 78.8017 167.22 78.5448C166.922 78.2776 166.501 78.144 165.957 78.144C165.402 78.144 164.96 78.293 164.631 78.591C164.302 78.889 164.117 79.2693 164.076 79.7317H162.458C162.488 79.1151 162.653 78.5756 162.951 78.1132C163.249 77.6508 163.655 77.2911 164.168 77.0342C164.682 76.767 165.278 76.6334 165.957 76.6334C166.696 76.6334 167.313 76.7619 167.806 77.0188C168.299 77.2654 168.669 77.5994 168.916 78.0207C169.163 78.442 169.286 78.9147 169.286 79.4388C169.286 79.9732 169.127 80.4356 168.808 80.8261C168.5 81.2063 168.125 81.4837 167.683 81.6584V81.7509C168.279 81.9153 168.767 82.2236 169.147 82.6758C169.538 83.1176 169.733 83.7137 169.733 84.4638C169.733 85.0701 169.584 85.6301 169.286 86.1439C168.998 86.6475 168.572 87.0482 168.007 87.3462C167.452 87.6442 166.773 87.7932 165.972 87.7932ZM175.738 87.7932C174.988 87.7932 174.336 87.6545 173.781 87.3771C173.226 87.0996 172.789 86.7194 172.471 86.2364C172.162 85.7534 171.983 85.2088 171.931 84.6025H173.596C173.699 85.1061 173.935 85.512 174.305 85.8202C174.685 86.1285 175.168 86.2827 175.754 86.2827C176.442 86.2827 176.987 86.0669 177.388 85.6353C177.788 85.1934 177.989 84.6282 177.989 83.9397C177.989 83.2101 177.783 82.6449 177.372 82.2442C176.961 81.8434 176.437 81.643 175.8 81.643C175.286 81.643 174.85 81.7612 174.49 81.9975C174.13 82.2339 173.848 82.5319 173.642 82.8916H172.07L172.995 76.8184H178.867V78.329H174.259L173.735 81.0881H173.842C174.058 80.8415 174.346 80.636 174.706 80.4716C175.076 80.3071 175.512 80.2249 176.016 80.2249C176.756 80.2249 177.388 80.3842 177.912 80.7028C178.446 81.0213 178.857 81.4632 179.145 82.0284C179.433 82.5833 179.577 83.2153 179.577 83.9243C179.577 84.6436 179.417 85.2962 179.099 85.8819C178.79 86.4676 178.349 86.9352 177.773 87.2846C177.198 87.6237 176.519 87.7932 175.738 87.7932ZM185.613 87.7932C184.78 87.7932 184.051 87.5672 183.424 87.115C182.807 86.6629 182.33 86.0206 181.991 85.1883C181.651 84.3456 181.482 83.354 181.482 82.2133C181.482 81.0624 181.651 80.0708 181.991 79.2384C182.33 78.4061 182.807 77.7638 183.424 77.3117C184.051 76.8595 184.78 76.6334 185.613 76.6334C186.455 76.6334 187.185 76.8595 187.802 77.3117C188.418 77.7638 188.896 78.4061 189.235 79.2384C189.574 80.0708 189.744 81.0624 189.744 82.2133C189.744 83.354 189.574 84.3456 189.235 85.1883C188.896 86.0206 188.418 86.6629 187.802 87.115C187.185 87.5672 186.455 87.7932 185.613 87.7932ZM183.147 82.2133C183.147 82.7888 183.198 83.3129 183.301 83.7856C183.403 84.2583 183.547 84.6693 183.732 85.0187L186.43 78.3444C186.173 78.2211 185.901 78.1594 185.613 78.1594C184.894 78.1594 184.303 78.5242 183.84 79.2538C183.378 79.9732 183.147 80.9597 183.147 82.2133ZM185.613 86.2827C186.096 86.2827 186.522 86.1182 186.892 85.7894C187.262 85.4606 187.55 84.993 187.755 84.3867C187.971 83.7702 188.079 83.0457 188.079 82.2133C188.079 81.6379 188.028 81.1138 187.925 80.6411C187.822 80.1684 187.678 79.7625 187.493 79.4234L184.796 86.0977C185.053 86.221 185.325 86.2827 185.613 86.2827ZM193.314 87.6083L197.399 78.2982H191.757V76.8184H199.079V78.0824L195.025 87.6083H193.314Z" fill="white"/>
</g>
<rect x="-2.02283" y="0.384491" width="229.583" height="143.616" fill="white" fill-opacity="0.05"/>
</g>
<path d="M189.831 24.2034L191.389 15.0215H193.879L192.321 24.2034H189.831ZM201.308 15.223C200.593 14.9628 199.838 14.8323 199.078 14.8374C196.62 14.8374 194.889 16.0812 194.874 17.8642C194.86 19.182 196.11 19.917 197.054 20.3554C198.022 20.8052 198.347 21.0919 198.343 21.4933C198.337 22.108 197.569 22.3886 196.855 22.3886C195.859 22.3886 195.33 22.2481 194.513 21.9075L194.192 21.7618L193.843 23.8146C194.424 24.0704 195.499 24.2924 196.614 24.3037C199.229 24.3037 200.926 23.0744 200.946 21.1706C200.955 20.1273 200.293 19.3333 198.857 18.6788C197.988 18.2572 197.455 17.9714 197.461 17.5419C197.461 17.161 197.912 16.7535 198.886 16.7535C199.524 16.7391 200.158 16.8588 200.747 17.1048L200.97 17.2107L201.308 15.223V15.223ZM207.706 15.0215H205.79C205.196 15.0215 204.752 15.1846 204.492 15.7795L200.808 24.1566H203.43C203.43 24.1566 203.85 23.0426 203.946 22.798L207.087 22.8018C207.16 23.1184 207.385 24.1566 207.385 24.1566H209.713L207.706 15.0215ZM204.659 20.9242C204.865 20.3957 205.651 18.3607 205.651 18.3607C205.636 18.3851 205.855 17.8295 205.98 17.4852L206.148 18.276C206.148 18.276 206.625 20.4651 206.724 20.9242H204.659ZM187.718 15.0215L185.288 21.261L185.029 19.9929C184.577 18.5313 183.167 16.9479 181.592 16.1552L183.814 24.1566L186.439 24.1537L190.347 15.0215H187.706" fill="url(#paint1_linear_60_94)"/>
<path d="M182.911 15.0217H178.917L178.885 15.2123C182.005 15.9717 184.07 17.8062 184.928 20.0099L184.055 15.7937C183.905 15.2133 183.468 15.0399 182.928 15.0198" fill="url(#paint2_linear_60_94)"/>
<path d="M22.4473 12.5058C22.7328 12.3604 23.0146 12.4584 23.1141 12.6556L23.118 12.6643L23.123 12.6731C24.3388 14.7849 25.0533 17.1995 25.0671 19.819C25.0809 22.4359 24.3929 24.8554 23.2017 26.9785C23.0504 27.2197 22.7968 27.2869 22.5396 27.1667C22.3054 27.0131 22.242 26.7594 22.3632 26.5025C23.5108 24.5347 24.1287 22.2546 24.1159 19.8241C24.1031 17.3875 23.4069 15.1162 22.2945 13.1678C22.1552 12.8835 22.2529 12.605 22.4473 12.5058ZM19.4916 14.0627C19.772 13.9281 20.0451 14.0266 20.1428 14.2203L20.1488 14.233L20.1566 14.2446C21.16 15.8883 21.7175 17.7847 21.7283 19.8369C21.7391 21.888 21.202 23.789 20.217 25.4427C20.0659 25.6867 19.8104 25.7556 19.5519 25.6348C19.317 25.4807 19.2538 25.2254 19.3765 24.9677C20.2143 23.4729 20.7352 21.7112 20.7254 19.8423C20.7156 17.9816 20.2319 16.2226 19.3213 14.7276C19.1981 14.4724 19.2591 14.2185 19.4916 14.0627ZM16.5007 15.606C16.6616 15.4896 16.9631 15.5307 17.1422 15.7715C17.8827 16.952 18.3299 18.3795 18.3377 19.855C18.3457 21.3809 17.9142 22.762 17.1856 23.9511C17.017 24.184 16.7585 24.2488 16.536 24.1167C16.2952 23.9391 16.2513 23.6366 16.3656 23.474L16.3715 23.4662L16.3763 23.4574C17.0214 22.4188 17.3934 21.1657 17.3865 19.8601C17.3797 18.5548 16.9951 17.3054 16.3392 16.2739C16.1972 16.0474 16.2612 15.7799 16.5007 15.606ZM13.58 17.1187C13.8051 16.9554 14.0963 17.0058 14.2278 17.1885L14.2298 17.1924L14.2327 17.1953C14.5238 17.581 14.7626 18.0096 14.9053 18.43C15.0555 18.9246 15.1507 19.4031 15.1532 19.8721C15.1558 20.3656 15.1085 20.8325 14.9283 21.2923C14.732 21.793 14.5427 22.1771 14.2612 22.5585L14.2582 22.5615L14.2563 22.5654C14.1267 22.7496 13.8361 22.8031 13.6092 22.6421C13.4278 22.5131 13.3731 22.2259 13.5277 21.999C13.7584 21.7035 13.9261 21.3583 14.0362 21.0207C14.1508 20.669 14.2041 20.2691 14.202 19.8772C14.2 19.4853 14.1424 19.0859 14.0241 18.7355C13.9105 18.3991 13.7391 18.0557 13.5053 17.7627C13.3483 17.5375 13.4 17.2497 13.58 17.1187Z" fill="white"/>
<g opacity="0.7">
<rect x="186.47" y="112.261" width="22.9589" height="17.4438" rx="2.6569" fill="white" fill-opacity="0.26" stroke="white" stroke-width="0.567887"/>
<path d="M186.554 117.518H192.803C193.615 117.518 194.273 118.177 194.273 118.989V121.859M194.273 129.634V126.199M194.273 126.199V121.859M194.273 126.199H186.554M194.273 121.859H186.554" stroke="white" stroke-width="0.567887"/>
<path d="M209.345 117.518H201.993M201.993 117.518V121.858M201.993 117.518V112.347M201.993 129.634V126.199M201.993 126.199V121.858M201.993 126.199H209.345M201.993 121.858H209.345" stroke="white" stroke-width="0.567887"/>
</g>
<defs>
<filter id="filter0_f_60_94" x="-40.2614" y="-216.239" width="270.206" height="261.296" filterUnits="userSpaceOnUse" color-interpolation-filters="sRGB">
<feFlood flood-opacity="0" result="BackgroundImageFix"/>
<feBlend mode="normal" in="SourceGraphic" in2="BackgroundImageFix" result="shape"/>
<feGaussianBlur stdDeviation="20.9009" result="effect1_foregroundBlur_60_94"/>
</filter>
<filter id="filter1_f_60_94" x="56.9564" y="-183.008" width="270.206" height="261.296" filterUnits="userSpaceOnUse" color-interpolation-filters="sRGB">
<feFlood flood-opacity="0" result="BackgroundImageFix"/>
<feBlend mode="normal" in="SourceGraphic" in2="BackgroundImageFix" result="shape"/>
<feGaussianBlur stdDeviation="20.9009" result="effect1_foregroundBlur_60_94"/>
</filter>
<filter id="filter2_f_60_94" x="85.0938" y="-116.442" width="275.99" height="263.908" filterUnits="userSpaceOnUse" color-interpolation-filters="sRGB">
<feFlood flood-opacity="0" result="BackgroundImageFix"/>
<feBlend mode="normal" in="SourceGraphic" in2="BackgroundImageFix" result="shape"/>
<feGaussianBlur stdDeviation="29.2612" result="effect1_foregroundBlur_60_94"/>
</filter>
<filter id="filter3_f_60_94" x="66.9246" y="-134.915" width="223.711" height="230.884" filterUnits="userSpaceOnUse" color-interpolation-filters="sRGB">
<feFlood flood-opacity="0" result="BackgroundImageFix"/>
<feBlend mode="normal" in="SourceGraphic" in2="BackgroundImageFix" result="shape"/>
<feGaussianBlur stdDeviation="22.2942" result="effect1_foregroundBlur_60_94"/>
</filter>
<filter id="filter4_f_60_94" x="-13.5682" y="-167.854" width="328.623" height="239.16" filterUnits="userSpaceOnUse" color-interpolation-filters="sRGB">
<feFlood flood-opacity="0" result="BackgroundImageFix"/>
<feBlend mode="normal" in="SourceGraphic" in2="BackgroundImageFix" result="shape"/>
<feGaussianBlur stdDeviation="22.2942" result="effect1_foregroundBlur_60_94"/>
</filter>
<filter id="filter5_di_60_94" x="11.9984" y="117.938" width="47.3537" height="9.18355" filterUnits="userSpaceOnUse" color-interpolation-filters="sRGB">
<feFlood flood-opacity="0" result="BackgroundImageFix"/>
<feColorMatrix in="SourceAlpha" type="matrix" values="0 0 0 0 0 0 0 0 0 0 0 0 0 0 0 0 0 0 127 0" result="hardAlpha"/>
<feOffset dy="1.62253"/>
<feGaussianBlur stdDeviation="0.811267"/>
<feComposite in2="hardAlpha" operator="out"/>
<feColorMatrix type="matrix" values="0 0 0 0 0.0875 0 0 0 0 0.0875 0 0 0 0 0.0875 0 0 0 0.16 0"/>
<feBlend mode="normal" in2="BackgroundImageFix" result="effect1_dropShadow_60_94"/>
<feBlend mode="normal" in="SourceGraphic" in2="effect1_dropShadow_60_94" result="shape"/>
<feColorMatrix in="SourceAlpha" type="matrix" values="0 0 0 0 0 0 0 0 0 0 0 0 0 0 0 0 0 0 127 0" result="hardAlpha"/>
<feOffset dy="1.62253"/>
<feGaussianBlur stdDeviation="0.811267"/>
<feComposite in2="hardAlpha" operator="arithmetic" k2="-1" k3="1"/>
<feColorMatrix type="matrix" values="0 0 0 0 0.682353 0 0 0 0 0.682353 0 0 0 0 0.682353 0 0 0 0.25 0"/>
<feBlend mode="normal" in2="shape" result="effect2_innerShadow_60_94"/>
</filter>
<filter id="filter6_di_60_94" x="102.998" y="117.318" width="27.0639" height="10.4086" filterUnits="userSpaceOnUse" color-interpolation-filters="sRGB">
<feFlood flood-opacity="0" result="BackgroundImageFix"/>
<feColorMatrix in="SourceAlpha" type="matrix" values="0 0 0 0 0 0 0 0 0 0 0 0 0 0 0 0 0 0 127 0" result="hardAlpha"/>
<feOffset dy="1.62253"/>
<feGaussianBlur stdDeviation="0.811267"/>
<feComposite in2="hardAlpha" operator="out"/>
<feColorMatrix type="matrix" values="0 0 0 0 0.0875 0 0 0 0 0.0875 0 0 0 0 0.0875 0 0 0 0.16 0"/>
<feBlend mode="normal" in2="BackgroundImageFix" result="effect1_dropShadow_60_94"/>
<feBlend mode="normal" in="SourceGraphic" in2="effect1_dropShadow_60_94" result="shape"/>
<feColorMatrix in="SourceAlpha" type="matrix" values="0 0 0 0 0 0 0 0 0 0 0 0 0 0 0 0 0 0 127 0" result="hardAlpha"/>
<feOffset dy="1.62253"/>
<feGaussianBlur stdDeviation="0.811267"/>
<feComposite in2="hardAlpha" operator="arithmetic" k2="-1" k3="1"/>
<feColorMatrix type="matrix" values="0 0 0 0 0.682353 0 0 0 0 0.682353 0 0 0 0 0.682353 0 0 0 0.25 0"/>
<feBlend mode="normal" in2="shape" result="effect2_innerShadow_60_94"/>
</filter>
<filter id="filter7_di_60_94" x="12.2054" y="75.4166" width="188.902" height="15.2161" filterUnits="userSpaceOnUse" color-interpolation-filters="sRGB">
<feFlood flood-opacity="0" result="BackgroundImageFix"/>
<feColorMatrix in="SourceAlpha" type="matrix" values="0 0 0 0 0 0 0 0 0 0 0 0 0 0 0 0 0 0 127 0" result="hardAlpha"/>
<feOffset dy="0.811267"/>
<feGaussianBlur stdDeviation="1.01408"/>
<feComposite in2="hardAlpha" operator="out"/>
<feColorMatrix type="matrix" values="0 0 0 0 0.0916667 0 0 0 0 0.0916667 0 0 0 0 0.0916667 0 0 0 0.4 0"/>
<feBlend mode="normal" in2="BackgroundImageFix" result="effect1_dropShadow_60_94"/>
<feBlend mode="normal" in="SourceGraphic" in2="effect1_dropShadow_60_94" result="shape"/>
<feColorMatrix in="SourceAlpha" type="matrix" values="0 0 0 0 0 0 0 0 0 0 0 0 0 0 0 0 0 0 127 0" result="hardAlpha"/>
<feOffset dy="1.62253"/>
<feGaussianBlur stdDeviation="0.811267"/>
<feComposite in2="hardAlpha" operator="arithmetic" k2="-1" k3="1"/>
<feColorMatrix type="matrix" values="0 0 0 0 0.683333 0 0 0 0 0.683333 0 0 0 0 0.683333 0 0 0 0.25 0"/>
<feBlend mode="normal" in2="shape" result="effect2_innerShadow_60_94"/>
</filter>
<linearGradient id="paint0_linear_60_94" x1="1.07568e-06" y1="62.3345" x2="227.561" y2="72" gradientUnits="userSpaceOnUse">
<stop stop-color="white" stop-opacity="0.05"/>
<stop offset="1" stop-color="white" stop-opacity="0.05"/>
</linearGradient>
<linearGradient id="paint1_linear_60_94" x1="195.652" y1="14.8373" x2="195.652" y2="24.3037" gradientUnits="userSpaceOnUse">
<stop stop-color="white"/>
<stop offset="1" stop-color="white" stop-opacity="0.75"/>
</linearGradient>
<linearGradient id="paint2_linear_60_94" x1="181.906" y1="15.0198" x2="181.906" y2="20.0099" gradientUnits="userSpaceOnUse">
<stop stop-color="white"/>
<stop offset="1" stop-color="white" stop-opacity="0.75"/>
</linearGradient>
</defs>
</svg>
