<svg width="118" height="118" viewBox="0 0 118 118" fill="none" xmlns="http://www.w3.org/2000/svg">
<path opacity="0.35" d="M89.9293 55.7741C90.4605 49.4357 89.0685 43.0841 85.9397 37.5691C82.8109 32.054 78.0944 27.6385 72.4212 24.9132C66.748 22.188 60.3886 21.283 54.1939 22.3193C47.9992 23.3556 42.2646 26.2837 37.7572 30.7121C33.2498 35.1404 30.1846 40.8577 28.9717 47.099C27.7588 53.3404 28.4561 59.8082 30.9702 65.6371C33.4842 71.4661 37.6953 76.3782 43.0399 79.7164C48.3845 83.0545 54.6078 84.6595 60.8772 84.3165L60.6918 80.8363C55.122 81.141 49.5932 79.7152 44.8451 76.7496C40.0969 73.7839 36.3558 69.42 34.1223 64.2416C31.8888 59.0631 31.2694 53.3171 32.3469 47.7723C33.4245 42.2275 36.1476 37.1482 40.1519 33.2141C44.1563 29.28 49.251 26.6786 54.7543 25.758C60.2577 24.8373 65.9073 25.6413 70.9474 28.0625C75.9875 30.4836 80.1776 34.4063 82.9573 39.3059C85.7369 44.2055 86.9735 49.8482 86.5016 55.4792L89.9293 55.7741Z" fill="#C4C4C4"/>
<g filter="url(#filter0_d_1_43)">
<path d="M94.0955 53.1315C94.0955 60.3195 91.9002 67.336 87.8035 73.2423C83.7067 79.1486 77.9039 83.6628 71.1714 86.181C64.4389 88.6992 57.098 89.1012 50.1308 87.3332C43.1636 85.5653 36.9025 81.7117 32.1853 76.2881C27.4681 70.8645 24.5198 64.1296 23.7349 56.9845C22.95 49.8395 24.366 42.6252 27.7933 36.3069C31.2206 29.9886 36.4958 24.8677 42.913 21.6294C49.3302 18.3911 56.5834 17.1899 63.702 18.1865L62.0958 29.6591C57.3143 28.9897 52.4424 29.7966 48.132 31.9717C43.8216 34.1469 40.2782 37.5865 37.9761 41.8305C35.674 46.0745 34.723 50.9203 35.2502 55.7196C35.7774 60.5188 37.7577 65.0426 40.9263 68.6856C44.0948 72.3286 48.3003 74.9171 52.9801 76.1046C57.6599 77.2921 62.5908 77.0221 67.113 75.3307C71.6351 73.6392 75.5329 70.607 78.2846 66.6398C81.0364 62.6726 82.5109 57.9596 82.5109 53.1315H94.0955Z" fill="#99E39E"/>
</g>
<path d="M48.0718 55.8766V50.7663H49.2415V55.8766H48.0718ZM45.9368 53.8893V52.7537H51.3879V53.8893H45.9368ZM52.694 56.6148L55.658 49.8351H51.6606V48.6654H57.0548V49.642L54.1136 56.6148H52.694ZM60.5156 56.7511C59.9478 56.7511 59.4557 56.6527 59.0393 56.4558C58.6305 56.2514 58.3087 55.9751 58.074 55.6268C57.8393 55.271 57.6992 54.8697 57.6538 54.423H58.9825C59.0506 54.7562 59.221 55.0363 59.4935 55.2634C59.7661 55.483 60.1068 55.5927 60.5156 55.5927C60.826 55.5927 61.091 55.5208 61.3105 55.377C61.5301 55.2255 61.7004 55.0249 61.8216 54.7751C61.9503 54.5177 62.0146 54.23 62.0146 53.912C62.0146 53.5865 61.9503 53.3025 61.8216 53.0603C61.7004 52.818 61.5301 52.6325 61.3105 52.5038C61.091 52.3675 60.8374 52.2994 60.5497 52.2994C60.1938 52.2994 59.8872 52.3827 59.6298 52.5492C59.38 52.7082 59.1983 52.9089 59.0847 53.1511H57.7674L58.426 48.6654H62.8096V49.8578H59.4481L59.0847 51.8224C59.2588 51.6332 59.4897 51.4817 59.7774 51.3682C60.0651 51.247 60.3945 51.1865 60.7654 51.1865C61.1818 51.1865 61.549 51.2584 61.867 51.4022C62.185 51.5461 62.4538 51.7429 62.6733 51.9928C62.8929 52.2426 63.0556 52.5341 63.1616 52.8672C63.2752 53.1928 63.332 53.5372 63.332 53.9006C63.332 54.3095 63.2638 54.688 63.1276 55.0363C62.9913 55.377 62.7982 55.676 62.5484 55.9334C62.3061 56.1908 62.0109 56.3915 61.6626 56.5353C61.3219 56.6792 60.9396 56.7511 60.5156 56.7511ZM65.6846 56.6148L70.1931 48.6654H71.5331L67.0246 56.6148H65.6846ZM71.1697 56.7511C70.8139 56.7511 70.4883 56.6716 70.1931 56.5126C69.9054 56.346 69.6745 56.1151 69.5003 55.8199C69.3262 55.517 69.2391 55.1612 69.2391 54.7524C69.2391 54.336 69.3262 53.9801 69.5003 53.6849C69.6745 53.3896 69.9054 53.1625 70.1931 53.0035C70.4883 52.8369 70.8139 52.7537 71.1697 52.7537C71.5407 52.7537 71.8662 52.8369 72.1464 53.0035C72.4341 53.1625 72.6612 53.3896 72.8277 53.6849C73.0019 53.9801 73.0889 54.336 73.0889 54.7524C73.0889 55.1612 73.0019 55.517 72.8277 55.8199C72.6612 56.1151 72.4341 56.346 72.1464 56.5126C71.8587 56.6716 71.5331 56.7511 71.1697 56.7511ZM71.1584 55.7972C71.3173 55.7972 71.4612 55.7593 71.5899 55.6836C71.7186 55.6003 71.8208 55.483 71.8965 55.3315C71.9722 55.1726 72.0101 54.9795 72.0101 54.7524C72.0101 54.5177 71.9722 54.3246 71.8965 54.1732C71.8208 54.0218 71.7186 53.9082 71.5899 53.8325C71.4688 53.7492 71.3287 53.7076 71.1697 53.7076C71.0183 53.7076 70.8782 53.7492 70.7495 53.8325C70.6208 53.9082 70.5186 54.0218 70.4429 54.1732C70.3672 54.3246 70.3293 54.5177 70.3293 54.7524C70.3293 54.9795 70.3672 55.1726 70.4429 55.3315C70.5186 55.483 70.617 55.6003 70.7382 55.6836C70.8669 55.7593 71.0069 55.7972 71.1584 55.7972ZM66.1161 52.5265C65.7527 52.5265 65.4234 52.447 65.1281 52.288C64.8404 52.1291 64.6095 51.8981 64.4354 51.5953C64.2688 51.2925 64.1856 50.9366 64.1856 50.5278C64.1856 50.119 64.2688 49.7669 64.4354 49.4717C64.6095 49.1688 64.8442 48.9379 65.1395 48.7789C65.4348 48.6199 65.7603 48.5405 66.1161 48.5405C66.4795 48.5405 66.8051 48.6199 67.0928 48.7789C67.3805 48.9379 67.6076 49.1688 67.7742 49.4717C67.9483 49.7669 68.0354 50.119 68.0354 50.5278C68.0354 50.9366 67.9483 51.2925 67.7742 51.5953C67.6076 51.8981 67.3805 52.1291 67.0928 52.288C66.8051 52.447 66.4795 52.5265 66.1161 52.5265ZM66.1048 51.5726C66.2638 51.5726 66.4076 51.5347 66.5363 51.459C66.665 51.3757 66.7635 51.2584 66.8316 51.107C66.9073 50.948 66.9452 50.7549 66.9452 50.5278C66.9452 50.3007 66.9073 50.1076 66.8316 49.9486C66.7635 49.7896 66.665 49.6723 66.5363 49.5966C66.4076 49.5133 66.2676 49.4717 66.1161 49.4717C65.9647 49.4717 65.8209 49.5133 65.6846 49.5966C65.5559 49.6723 65.4537 49.7896 65.378 49.9486C65.3023 50.1076 65.2644 50.3007 65.2644 50.5278C65.2644 50.7549 65.3023 50.948 65.378 51.107C65.4537 51.2584 65.5559 51.3757 65.6846 51.459C65.8133 51.5347 65.9534 51.5726 66.1048 51.5726Z" fill="white"/>
<defs>
<filter id="filter0_d_1_43" x="8.7738e-05" y="3.33786e-06" width="117.619" height="117.619" filterUnits="userSpaceOnUse" color-interpolation-filters="sRGB">
<feFlood flood-opacity="0" result="BackgroundImageFix"/>
<feColorMatrix in="SourceAlpha" type="matrix" values="0 0 0 0 0 0 0 0 0 0 0 0 0 0 0 0 0 0 127 0" result="hardAlpha"/>
<feOffset dy="5.67817"/>
<feGaussianBlur stdDeviation="11.7619"/>
<feColorMatrix type="matrix" values="0 0 0 0 0.6 0 0 0 0 0.890196 0 0 0 0 0.619608 0 0 0 0.2 0"/>
<feBlend mode="normal" in2="BackgroundImageFix" result="effect1_dropShadow_1_43"/>
<feBlend mode="normal" in="SourceGraphic" in2="effect1_dropShadow_1_43" result="shape"/>
</filter>
</defs>
</svg>
