<svg width="48" height="48" viewBox="0 0 48 48" fill="none" xmlns="http://www.w3.org/2000/svg">
<path d="M24 48C37.2548 48 48 37.2548 48 24C48 10.7452 37.2548 0 24 0C10.7452 0 0 10.7452 0 24C0 37.2548 10.7452 48 24 48Z" fill="#627EEA"/>
<path d="M24.748 5.99634V19.302L35.9935 24.3277L24.748 5.99634Z" fill="white" fill-opacity="0.602"/>
<path d="M24.7481 5.99634L13.5026 24.3277L24.7481 19.302V5.99634Z" fill="white"/>
<path d="M24.748 32.9492V41.9902L36.0001 26.421L24.748 32.9492Z" fill="white" fill-opacity="0.602"/>
<path d="M24.7481 41.9902V32.9492L13.5026 26.421L24.7481 41.9902Z" fill="white"/>
<path d="M24.748 30.8565L35.9935 24.3283L24.748 19.3026V30.8565Z" fill="white" fill-opacity="0.2"/>
<path d="M13.5026 24.3283L24.7481 30.8565V19.3026L13.5026 24.3283Z" fill="white" fill-opacity="0.602"/>
</svg>
