<svg width="114" height="29" viewBox="0 0 114 29" fill="none" xmlns="http://www.w3.org/2000/svg">
<path d="M37.9607 19.6362H40.52V7.59253H37.9607V19.6362Z" fill="white"/>
<path d="M45.77 19.9041C48.4464 19.9041 50.2027 18.1811 50.2027 15.1368C50.2027 12.1928 48.4965 10.3528 45.77 10.3528C43.0936 10.3528 41.354 12.0757 41.354 15.1368C41.354 18.0975 43.0435 19.9041 45.77 19.9041ZM45.77 17.8299C44.6158 17.8299 43.9802 16.8764 43.9802 15.1368C43.9802 13.3804 44.5991 12.427 45.77 12.427C46.9409 12.427 47.5765 13.3971 47.5765 15.1368C47.5765 16.8931 46.9576 17.8299 45.77 17.8299Z" fill="white"/>
<path d="M54.3664 19.6531C55.3366 19.6531 56.1395 19.2517 56.7082 18.4655V19.971C56.7082 21.2255 56.0893 21.6437 55.1693 21.6437C54.2828 21.6437 53.597 21.2088 53.4966 20.4059H50.9373C51.2551 22.5971 52.9111 23.6008 55.2028 23.6008C57.5613 23.6008 59.2675 22.3462 59.2675 19.9375V10.6371H56.7082V11.4735C56.1562 10.7375 55.37 10.3528 54.3664 10.3528C52.125 10.3528 50.6697 12.0255 50.6697 15.0197C50.6697 17.8801 52.0915 19.6531 54.3664 19.6531ZM54.9853 17.579C53.8813 17.579 53.2959 16.659 53.2959 15.0197C53.2959 13.3302 53.8813 12.427 54.9853 12.427C56.106 12.427 56.7082 13.347 56.7082 15.003C56.7082 16.6757 56.1228 17.579 54.9853 17.579Z" fill="white"/>
<path d="M64.532 19.9041C67.2083 19.9041 68.9647 18.1811 68.9647 15.1368C68.9647 12.1928 67.2585 10.3528 64.532 10.3528C61.8556 10.3528 60.116 12.0757 60.116 15.1368C60.116 18.0975 61.8054 19.9041 64.532 19.9041ZM64.532 17.8299C63.3778 17.8299 62.7421 16.8764 62.7421 15.1368C62.7421 13.3804 63.3611 12.427 64.532 12.427C65.7029 12.427 66.3385 13.3971 66.3385 15.1368C66.3385 16.8931 65.7196 17.8299 64.532 17.8299Z" fill="white"/>
<path d="M69.8164 9.73362H72.376V7.59253H69.8164V9.73362ZM69.8164 19.6362H72.376V10.6369H69.8164V19.6362Z" fill="white"/>
<path d="M76.1533 23.3331V18.7331C76.6885 19.5026 77.458 19.9041 78.4114 19.9041C80.7031 19.9041 82.1918 18.1811 82.1918 15.1201C82.1918 12.1761 80.7365 10.3528 78.4114 10.3528C77.4747 10.3528 76.7053 10.7877 76.1533 11.5739V10.6371H73.594V23.3331H76.1533ZM77.8762 12.427C78.9634 12.427 79.5656 13.3804 79.5656 15.1201C79.5656 16.8764 78.9802 17.8299 77.8762 17.8299C76.7554 17.8299 76.1533 16.8597 76.1533 15.1201C76.1533 13.3804 76.7387 12.427 77.8762 12.427Z" fill="white"/>
<path d="M85.2653 13.1295C85.2653 12.6444 85.7003 12.3099 86.3694 12.3099C87.2726 12.3099 87.8079 12.6946 87.9584 13.6146H90.501C90.2501 11.3397 88.6108 10.3528 86.453 10.3528C84.0443 10.3528 82.8232 11.7579 82.8232 13.2633C82.8232 16.8764 88.2763 15.3208 88.2763 17.0604C88.2763 17.6124 87.8246 17.9637 86.9213 17.9637C85.9679 17.9637 85.2821 17.5121 85.165 16.6757H82.6057C82.9403 18.9004 84.5795 19.9041 86.8544 19.9041C89.1963 19.9041 90.8355 18.683 90.8355 16.9099C90.8355 13.347 85.2653 14.9026 85.2653 13.1295Z" fill="white"/>
<path d="M97.1411 15.8057C97.1411 16.9599 96.5055 17.8297 95.5185 17.8297C94.6153 17.8297 94.1804 17.261 94.1804 16.1068V10.637H91.6211V16.6253C91.6211 18.8668 92.8756 19.9039 94.5818 19.9039C95.6691 19.9039 96.5556 19.4355 97.1411 18.4319V19.6362H99.7004V10.637H97.1411V15.8057Z" fill="white"/>
<path d="M100.937 19.6364H103.496V14.4677C103.496 13.3135 104.081 12.427 104.968 12.427C105.788 12.427 106.189 13.0124 106.189 14.1499V19.6364H108.732V14.4677C108.732 13.3135 109.334 12.427 110.22 12.427C111.04 12.427 111.425 13.0124 111.425 14.1499V19.6364H113.984V13.6313C113.984 11.4066 112.746 10.3528 111.073 10.3528C109.953 10.3528 108.999 10.8211 108.38 11.8415C107.929 10.8379 107.026 10.3528 105.955 10.3528C104.918 10.3528 104.065 10.8044 103.496 11.7746V10.6371H100.937V19.6364Z" fill="white"/>
<path d="M28.2548 23.311C31.0272 20.8353 32.7273 17.4944 32.7273 13.8182C32.7273 6.18662 25.401 0 16.3636 0C7.32625 0 0 6.18662 0 13.8182C0 21.4497 7.32625 27.6364 16.3636 27.6364C18.9275 27.6364 21.3537 27.1385 23.5139 26.2508C26.0515 27.8172 29.1605 28.9431 32.5941 28.7056C30.7801 28.2445 29.2199 26.3767 28.2548 23.311Z" fill="#99E39E" fill-opacity="0.4"/>
<path d="M28.3635 13.818C28.3635 19.4413 22.9909 23.9999 16.3635 23.9999C9.73611 23.9999 4.36353 19.4413 4.36353 13.818C4.36353 8.19478 9.73611 3.63623 16.3635 3.63623C22.9909 3.63623 28.3635 8.19478 28.3635 13.818Z" fill="#99E39E" fill-opacity="0.6"/>
<path d="M24 13.8182C24 17.4331 20.5811 20.3636 16.3637 20.3636C12.1462 20.3636 8.72729 17.4331 8.72729 13.8182C8.72729 10.2032 12.1462 7.27271 16.3637 7.27271C20.5811 7.27271 24 10.2032 24 13.8182Z" fill="#99E39E"/>
</svg>
