<svg width="119" height="28" viewBox="0 0 119 28" fill="none" xmlns="http://www.w3.org/2000/svg">
<path d="M34.3989 7.64123H37.3989V19.7712H34.3989V7.64123ZM38.5889 15.1912C38.5889 12.1912 40.4289 10.4012 43.2689 10.4012C46.1089 10.4012 47.9489 12.1912 47.9489 15.1912C47.9489 18.1912 46.1489 19.9912 43.2689 19.9912C40.3889 19.9912 38.5889 18.2412 38.5889 15.1912ZM44.9389 15.1912C44.9389 13.5412 44.2889 12.5712 43.2689 12.5712C42.2489 12.5712 41.6089 13.5712 41.6089 15.1912C41.6089 16.8112 42.2389 17.7912 43.2689 17.7912C44.2989 17.7912 44.9389 16.8712 44.9389 15.2012V15.1912ZM49.0789 20.3612H51.9589C52.096 20.6657 52.3277 20.9178 52.6196 21.08C52.9115 21.2421 53.248 21.3057 53.5789 21.2612C54.7189 21.2612 55.3189 20.6412 55.3189 19.7412V18.0612H55.2589C55.0199 18.5761 54.632 19.0075 54.1454 19.2999C53.6588 19.5922 53.0957 19.732 52.5289 19.7012C50.3389 19.7012 48.8889 18.0312 48.8889 15.1612C48.8889 12.2912 50.2689 10.4812 52.5689 10.4812C53.1535 10.4583 53.7311 10.6146 54.2244 10.9291C54.7177 11.2437 55.1031 11.7015 55.3289 12.2412V10.5712H58.3289V19.6712C58.3289 21.8612 56.3989 23.2212 53.5489 23.2212C50.8989 23.2212 49.2489 22.0312 49.0789 20.3712V20.3612ZM55.3289 15.1812C55.3289 13.7212 54.6589 12.8012 53.5989 12.8012C52.5389 12.8012 51.8889 13.7112 51.8889 15.1812C51.8889 16.6512 52.5289 17.4812 53.5989 17.4812C54.6689 17.4812 55.3289 16.6712 55.3289 15.1912V15.1812ZM59.4589 15.1812C59.4589 12.1812 61.2989 10.3912 64.1389 10.3912C66.9789 10.3912 68.8289 12.1812 68.8289 15.1812C68.8289 18.1812 67.0289 19.9812 64.1389 19.9812C61.2489 19.9812 59.4589 18.2412 59.4589 15.1912V15.1812ZM65.8089 15.1812C65.8089 13.5312 65.1589 12.5612 64.1389 12.5612C63.1189 12.5612 62.5289 13.5712 62.5289 15.2012C62.5289 16.8312 63.1589 17.8012 64.1789 17.8012C65.1989 17.8012 65.8089 16.8712 65.8089 15.2012V15.1812ZM69.9689 8.39123C69.961 8.08833 70.0433 7.78993 70.2052 7.53384C70.3672 7.27774 70.6015 7.0755 70.8785 6.95274C71.1555 6.82998 71.4627 6.79223 71.7612 6.84428C72.0597 6.89634 72.336 7.03585 72.5551 7.24512C72.7743 7.4544 72.9263 7.72403 72.992 8.01983C73.0577 8.31563 73.0341 8.62423 72.9241 8.90663C72.8142 9.18893 72.6229 9.43233 72.3745 9.60583C72.1262 9.77933 71.8318 9.87523 71.5289 9.88123C71.3281 9.89503 71.1266 9.86713 70.9371 9.79933C70.7475 9.73153 70.5741 9.62533 70.4276 9.48723C70.2811 9.34923 70.1647 9.18233 70.0858 8.99713C70.0068 8.81203 69.967 8.61253 69.9689 8.41123V8.39123ZM69.9689 10.5912H72.9689V19.7712H69.9689V10.5912ZM83.8589 15.1812C83.8589 18.1812 82.5289 19.8912 80.2489 19.8912C79.6643 19.9287 79.0822 19.7858 78.5814 19.4818C78.0806 19.1777 77.6853 18.7272 77.4489 18.1912H77.3889V22.7112H74.3889V10.5712H77.3889V12.2112H77.4489C77.6743 11.6663 78.0621 11.2041 78.5595 10.8874C79.0569 10.5707 79.6398 10.4149 80.2289 10.4412C82.5289 10.4812 83.8989 12.2012 83.8989 15.2012L83.8589 15.1812ZM80.8589 15.1812C80.8589 13.7212 80.1889 12.7912 79.1389 12.7912C78.0889 12.7912 77.4189 13.7312 77.4089 15.1812C77.3989 16.6312 78.0889 17.5612 79.1389 17.5612C80.1889 17.5612 80.8589 16.6512 80.8589 15.2012V15.1812ZM89.0089 10.3812C91.4989 10.3812 93.0089 11.5612 93.0789 13.4512H90.3489C90.3489 12.8012 89.8089 12.3912 88.9789 12.3912C88.1489 12.3912 87.7789 12.7112 87.7789 13.1812C87.7789 13.6512 88.1089 13.8012 88.7789 13.9412L90.6989 14.3312C92.5289 14.7212 93.3089 15.4612 93.3089 16.8512C93.3089 18.7512 91.5789 19.9712 89.0289 19.9712C86.4789 19.9712 84.8089 18.7512 84.6789 16.8812H87.5689C87.6589 17.5612 88.1989 17.9612 89.0789 17.9612C89.9589 17.9612 90.3589 17.6712 90.3589 17.1912C90.3589 16.7112 90.0789 16.6112 89.3589 16.4612L87.6289 16.0912C85.8389 15.7212 84.8989 14.7712 84.8989 13.3712C84.9189 11.5712 86.5289 10.4012 89.0089 10.4012V10.3812ZM103.319 19.7512H100.429V18.0412H100.369C100.21 18.6153 99.8599 19.1178 99.3759 19.4653C98.8919 19.8127 98.3039 19.9842 97.7089 19.9512C97.2531 19.9771 96.7971 19.9049 96.3716 19.7394C95.9461 19.5739 95.5611 19.3191 95.2426 18.992C94.9241 18.665 94.6794 18.2733 94.5253 17.8436C94.3711 17.4139 94.311 16.9561 94.3489 16.5012V10.5712H97.3489V15.8112C97.3489 16.9012 97.9089 17.4812 98.8389 17.4812C99.0569 17.4816 99.2729 17.4355 99.4719 17.3458C99.6699 17.2561 99.8479 17.1249 99.9919 16.9611C100.135 16.7972 100.243 16.6045 100.306 16.3959C100.369 16.1872 100.388 15.9674 100.359 15.7512V10.5712H103.359L103.319 19.7512ZM104.769 10.5712H107.669V12.3412H107.729C107.888 11.7747 108.231 11.2769 108.703 10.9259C109.175 10.5749 109.751 10.3903 110.339 10.4012C110.938 10.3533 111.532 10.5324 112.005 10.903C112.477 11.2736 112.793 11.8084 112.889 12.4012H112.949C113.13 11.8021 113.506 11.2805 114.017 10.9184C114.527 10.5563 115.144 10.3743 115.769 10.4012C116.177 10.3875 116.583 10.4598 116.961 10.6134C117.34 10.7669 117.681 10.9984 117.964 11.2926C118.247 11.5869 118.465 11.9374 118.604 12.3213C118.742 12.7052 118.799 13.1141 118.769 13.5212V19.7712H115.769V14.3212C115.769 13.3212 115.319 12.8612 114.479 12.8612C114.292 12.8596 114.106 12.8982 113.935 12.9744C113.764 13.0506 113.611 13.1626 113.487 13.3029C113.363 13.4432 113.27 13.6084 113.215 13.7875C113.16 13.9667 113.145 14.1555 113.169 14.3412V19.7712H110.319V14.2812C110.319 13.3612 109.869 12.8612 109.049 12.8612C108.86 12.8613 108.672 12.9015 108.5 12.9792C108.327 13.057 108.172 13.1705 108.047 13.3122C107.921 13.4539 107.827 13.6207 107.77 13.8016C107.714 13.9824 107.696 14.1731 107.719 14.3612V19.7712H104.719L104.769 10.5712Z" fill="white"/>
<path d="M26.0089 8.19118C25.5 7.02754 24.8265 5.94311 24.0089 4.97118C22.8004 3.49152 21.2922 2.28457 19.5836 1.42978C17.875 0.575001 16.0047 0.0917514 14.0959 0.0118414C12.1871 -0.0680686 10.283 0.257171 8.5089 0.966171C6.73487 1.67516 5.13107 2.75183 3.8031 4.12531C2.47512 5.49878 1.45307 7.13793 0.804224 8.93488C0.155374 10.7318 -0.105576 12.6458 0.0385635 14.5508C0.182714 16.4559 0.728663 18.3088 1.6405 19.9876C2.55234 21.6665 3.80939 23.1332 5.32891 24.2912C6.30391 25.0491 7.38126 25.6652 8.5289 26.1212C10.1379 26.7806 11.86 27.1202 13.5989 27.1212C17.1883 27.1133 20.6281 25.6825 23.1644 23.1425C25.7006 20.6025 27.1263 17.1606 27.1289 13.5712C27.1315 11.7197 26.7502 9.88778 26.0089 8.19118ZM13.5889 2.76117C15.1505 2.76101 16.6932 3.10231 18.1089 3.76117C17.7637 3.91034 17.4007 4.01453 17.0289 4.07118C15.8055 4.24827 14.6722 4.81625 13.7981 5.69035C12.924 6.56444 12.356 7.69778 12.1789 8.92118C12.1012 9.60728 11.7891 10.2456 11.2954 10.7284C10.8017 11.2112 10.1566 11.5088 9.4689 11.5712C8.2455 11.7483 7.11217 12.3163 6.23808 13.1904C5.36399 14.0645 4.796 15.1978 4.61891 16.4212C4.55895 17.0736 4.2806 17.6867 3.82891 18.1612C3.04956 16.5145 2.69946 14.6973 2.81118 12.8789C2.9229 11.0605 3.49281 9.29988 4.46788 7.76088C5.44294 6.22197 6.79148 4.95469 8.388 4.07702C9.9845 3.19935 11.7771 2.73982 13.5989 2.74117L13.5889 2.76117ZM5.31891 20.5712C5.43891 20.4612 5.55891 20.3612 5.67891 20.2412C6.56856 19.3787 7.13962 18.2401 7.29891 17.0112C7.36349 16.3204 7.6719 15.6752 8.1689 15.1912C8.6472 14.6934 9.2909 14.3875 9.9789 14.3312C11.2023 14.1541 12.3356 13.5861 13.2097 12.712C14.0838 11.8379 14.6518 10.7046 14.8289 9.48118C14.8722 8.75868 15.1822 8.07798 15.6989 7.57118C16.189 7.08303 16.8388 6.78828 17.5289 6.74117C18.6528 6.58654 19.701 6.08689 20.5289 5.31118C21.4716 6.09325 22.2702 7.03407 22.8889 8.09118C22.8509 8.14248 22.8073 8.18948 22.7589 8.23118C22.2816 8.73338 21.6387 9.04598 20.9489 9.11118C19.7242 9.28518 18.5892 9.85218 17.7145 10.7268C16.8399 11.6015 16.2729 12.7365 16.0989 13.9612C16.0284 14.6496 15.7221 15.2925 15.2319 15.7809C14.7416 16.2694 14.0976 16.5733 13.4089 16.6412C12.1819 16.8169 11.0444 17.3838 10.1652 18.2575C9.2861 19.1313 8.7122 20.2653 8.5289 21.4912C8.4751 21.9799 8.3072 22.4492 8.0389 22.8612C7.0129 22.252 6.094 21.4784 5.31891 20.5712ZM13.5889 24.4312C12.5742 24.4323 11.5643 24.2909 10.5889 24.0112C10.9226 23.3892 11.1395 22.7113 11.2289 22.0112C11.299 21.3243 11.6039 20.6826 12.0921 20.1944C12.5803 19.7062 13.222 19.4013 13.9089 19.3312C15.1341 19.1561 16.2697 18.589 17.1458 17.7147C18.0218 16.8405 18.5913 15.706 18.7689 14.4812C18.839 13.7943 19.1439 13.1526 19.6321 12.6644C20.1203 12.1762 20.762 11.8713 21.4489 11.8012C22.3709 11.6813 23.2497 11.338 24.0089 10.8012C24.4305 12.3991 24.4804 14.0723 24.1549 15.6925C23.8294 17.3127 23.137 18.8369 22.131 20.148C21.125 21.459 19.8321 22.5223 18.3513 23.2561C16.8706 23.9899 15.2415 24.3748 13.5889 24.3812V24.4312Z" fill="white"/>
</svg>
