<svg width="131" height="32" viewBox="0 0 131 32" fill="none" xmlns="http://www.w3.org/2000/svg">
<path d="M38.2129 21.8766H47.5413V19.0668H41.5284V8.4834H38.2129V21.8766Z" fill="white"/>
<path d="M53.0679 20.0034C51.7379 20.0034 51.0448 18.842 51.0448 17.1C51.0448 15.3579 51.7379 14.1778 53.0679 14.1778C54.3978 14.1778 55.1096 15.3579 55.1096 17.1C55.1096 18.842 54.3978 20.0034 53.0679 20.0034ZM53.0866 22.1763C56.1773 22.1763 58.2003 19.9847 58.2003 17.1C58.2003 14.2153 56.1773 12.0237 53.0866 12.0237C50.0146 12.0237 47.9541 14.2153 47.9541 17.1C47.9541 19.9847 50.0146 22.1763 53.0866 22.1763Z" fill="white"/>
<path d="M63.5501 25.192C64.9737 25.192 66.2287 24.8736 67.0717 24.1243C67.8397 23.4312 68.3454 22.3822 68.3454 20.9399V12.2859H65.4233V13.3161H65.3858C64.8239 12.5106 63.9622 12.0049 62.6885 12.0049C60.3095 12.0049 58.6611 13.9904 58.6611 16.8002C58.6611 19.7411 60.6654 21.352 62.8196 21.352C63.9809 21.352 64.7115 20.8837 65.2734 20.2468H65.3484V21.2022C65.3484 22.3635 64.8051 23.0379 63.5126 23.0379C62.5011 23.0379 61.9954 22.607 61.8268 22.1013H58.8672C59.1669 24.1056 60.9089 25.192 63.5501 25.192ZM63.5314 19.0855C62.3887 19.0855 61.6395 18.1489 61.6395 16.7065C61.6395 15.2455 62.3887 14.3089 63.5314 14.3089C64.8051 14.3089 65.4795 15.3953 65.4795 16.6878C65.4795 18.0365 64.8613 19.0855 63.5314 19.0855Z" fill="white"/>
<path d="M74.354 20.0034C73.024 20.0034 72.331 18.842 72.331 17.1C72.331 15.3579 73.024 14.1778 74.354 14.1778C75.6839 14.1778 76.3957 15.3579 76.3957 17.1C76.3957 18.842 75.6839 20.0034 74.354 20.0034ZM74.3727 22.1763C77.4635 22.1763 79.4861 19.9847 79.4861 17.1C79.4861 14.2153 77.4635 12.0237 74.3727 12.0237C71.3007 12.0237 69.2402 14.2153 69.2402 17.1C69.2402 19.9847 71.3007 22.1763 74.3727 22.1763Z" fill="white"/>
<path d="M80.3782 21.8766H83.4314V12.2859H80.3782V21.8766ZM80.3782 10.956H83.4314V8.4834H80.3782V10.956Z" fill="white"/>
<path d="M84.7559 25.0422H87.8091V20.8837H87.8466C88.446 21.6892 89.3264 22.1762 90.5627 22.1762C93.0727 22.1762 94.7399 20.1906 94.7399 17.0812C94.7399 14.1965 93.1851 12.0049 90.6376 12.0049C89.3264 12.0049 88.3898 12.5856 87.7342 13.4472H87.678V12.2859H84.7559V25.0422ZM89.776 19.816C88.4647 19.816 87.7155 18.7483 87.7155 17.1936C87.7155 15.6388 88.3898 14.4587 89.7198 14.4587C91.031 14.4587 91.6491 15.5452 91.6491 17.1936C91.6491 18.8232 90.9373 19.816 89.776 19.816Z" fill="white"/>
<path d="M99.7108 22.1762C102.221 22.1762 104.075 21.0898 104.075 18.9918C104.075 16.538 102.09 16.1071 100.404 15.8262C99.1863 15.6014 98.0999 15.5077 98.0999 14.8334C98.0999 14.234 98.6806 13.953 99.4298 13.953C100.273 13.953 100.853 14.2152 100.966 15.0769H103.776C103.626 13.185 102.165 12.0049 99.4486 12.0049C97.182 12.0049 95.3089 13.0539 95.3089 15.0769C95.3089 17.3247 97.0884 17.7742 98.7555 18.0552C100.029 18.28 101.191 18.3737 101.191 19.2353C101.191 19.8535 100.61 20.1906 99.6921 20.1906C98.6806 20.1906 98.0437 19.7223 97.9313 18.767H95.0466C95.1403 20.8837 96.9011 22.1762 99.7108 22.1762Z" fill="white"/>
<path d="M108.223 22.1575C109.553 22.1575 110.396 21.633 111.089 20.6964H111.145V21.8765H114.067V12.2859H111.014V17.6432C111.014 18.7858 110.377 19.5725 109.328 19.5725C108.354 19.5725 107.886 18.9918 107.886 17.9429V12.2859H104.851V18.5797C104.851 20.7152 106.012 22.1575 108.223 22.1575Z" fill="white"/>
<path d="M115.396 21.8765H118.449V16.5005C118.449 15.3579 119.011 14.5524 119.966 14.5524C120.884 14.5524 121.315 15.1518 121.315 16.1821V21.8765H124.368V16.5005C124.368 15.3579 124.911 14.5524 125.885 14.5524C126.803 14.5524 127.234 15.1518 127.234 16.1821V21.8765H130.287V15.6388C130.287 13.4847 129.201 12.0049 127.028 12.0049C125.792 12.0049 124.761 12.5294 124.012 13.6907H123.975C123.488 12.6605 122.532 12.0049 121.277 12.0049C119.891 12.0049 118.973 12.6605 118.374 13.6533H118.318V12.2859H115.396V21.8765Z" fill="white"/>
<path d="M19.5844 0.822524L16.5147 0L13.9279 9.6543L11.5924 0.938333L8.52271 1.76086L11.046 11.1778L4.76104 4.89286L2.51386 7.14004L9.4077 14.0339L0.822523 11.7335L0 14.8032L9.38038 17.3167C9.27299 16.8534 9.21617 16.3708 9.21617 15.8749C9.21617 12.3645 12.0618 9.51888 15.5721 9.51888C19.0825 9.51888 21.9281 12.3645 21.9281 15.8749C21.9281 16.3676 21.872 16.8473 21.7659 17.3078L30.291 19.592L31.1135 16.5224L21.6958 13.9989L30.2815 11.6983L29.459 8.62866L20.0417 11.152L26.3266 4.86706L24.0795 2.61989L17.2813 9.41812L19.5844 0.822524Z" fill="#F97316"/>
<path d="M21.7575 17.3433C21.4943 18.4559 20.9387 19.4555 20.1763 20.2564L26.3523 26.4324L28.5995 24.1853L21.7575 17.3433Z" fill="#F97316"/>
<path d="M20.114 20.3213C19.3425 21.1093 18.3674 21.6974 17.2739 22.0005L19.5213 30.3876L22.5909 29.5651L20.114 20.3213Z" fill="#F97316"/>
<path d="M17.1591 22.0311C16.6518 22.1615 16.1201 22.2308 15.5721 22.2308C14.985 22.2308 14.4165 22.1512 13.8768 22.0022L11.6274 30.397L14.6971 31.2194L17.1591 22.0311Z" fill="#F97316"/>
<path d="M13.7684 21.9711C12.6916 21.653 11.7339 21.0574 10.9781 20.2671L4.78687 26.4583L7.03404 28.7055L13.7684 21.9711Z" fill="#F97316"/>
<path d="M10.9264 20.2125C10.1836 19.4172 9.64246 18.4309 9.3849 17.3354L0.832031 19.6272L1.65455 22.6969L10.9264 20.2125Z" fill="#F97316"/>
</svg>
