<svg width="130" height="32" viewBox="0 0 130 32" fill="none" xmlns="http://www.w3.org/2000/svg">
<path d="M37.8765 22.2438H47.2049V19.434H41.192V8.85059H37.8765V22.2438Z" fill="white"/>
<path d="M52.7317 20.3706C51.4017 20.3706 50.7087 19.2092 50.7087 17.4672C50.7087 15.7251 51.4017 14.545 52.7317 14.545C54.0616 14.545 54.7734 15.7251 54.7734 17.4672C54.7734 19.2092 54.0616 20.3706 52.7317 20.3706ZM52.7504 22.5435C55.8411 22.5435 57.8642 20.3518 57.8642 17.4672C57.8642 14.5825 55.8411 12.3909 52.7504 12.3909C49.6784 12.3909 47.6179 14.5825 47.6179 17.4672C47.6179 20.3518 49.6784 22.5435 52.7504 22.5435Z" fill="white"/>
<path d="M63.2139 25.5592C64.6375 25.5592 65.8926 25.2408 66.7355 24.4915C67.5035 23.7984 68.0092 22.7494 68.0092 21.3071V12.653H65.0871V13.6833H65.0496C64.4877 12.8778 63.626 12.3721 62.3523 12.3721C59.9733 12.3721 58.325 14.3576 58.325 17.1674C58.325 20.1083 60.3292 21.7192 62.4834 21.7192C63.6448 21.7192 64.3753 21.2509 64.9372 20.614H65.0122V21.5693C65.0122 22.7307 64.469 23.405 63.1765 23.405C62.165 23.405 61.6592 22.9742 61.4906 22.4685H58.531C58.8307 24.4728 60.5728 25.5592 63.2139 25.5592ZM63.1952 19.4527C62.0526 19.4527 61.3033 18.5161 61.3033 17.0737C61.3033 15.6127 62.0526 14.6761 63.1952 14.6761C64.4689 14.6761 65.1433 15.7625 65.1433 17.055C65.1433 18.4037 64.5251 19.4527 63.1952 19.4527Z" fill="white"/>
<path d="M74.0176 20.3706C72.6876 20.3706 71.9945 19.2092 71.9945 17.4672C71.9945 15.7251 72.6876 14.545 74.0176 14.545C75.3475 14.545 76.0593 15.7251 76.0593 17.4672C76.0593 19.2092 75.3475 20.3706 74.0176 20.3706ZM74.0363 22.5435C77.127 22.5435 79.1503 20.3518 79.1503 17.4672C79.1503 14.5825 77.127 12.3909 74.0363 12.3909C70.9643 12.3909 68.9038 14.5825 68.9038 17.4672C68.9038 20.3518 70.9643 22.5435 74.0363 22.5435Z" fill="white"/>
<path d="M80.042 22.2438H83.0953V12.6531H80.042V22.2438ZM80.042 11.3232H83.0953V8.85059H80.042V11.3232Z" fill="white"/>
<path d="M84.4194 25.4093H87.4727V21.2509H87.5102C88.1096 22.0564 88.99 22.5434 90.2263 22.5434C92.7363 22.5434 94.4034 20.5578 94.4034 17.4484C94.4034 14.5637 92.8487 12.3721 90.3012 12.3721C88.99 12.3721 88.0534 12.9528 87.3978 13.8144H87.3416V12.653H84.4194V25.4093ZM89.4395 20.1832C88.1283 20.1832 87.379 19.1155 87.379 17.5608C87.379 16.006 88.0534 14.8259 89.3833 14.8259C90.6946 14.8259 91.3127 15.9124 91.3127 17.5608C91.3127 19.1904 90.6009 20.1832 89.4395 20.1832Z" fill="white"/>
<path d="M99.3751 22.5434C101.885 22.5434 103.74 21.4569 103.74 19.359C103.74 16.9051 101.754 16.4743 100.068 16.1933C98.8506 15.9686 97.7642 15.8749 97.7642 15.2006C97.7642 14.6011 98.3449 14.3202 99.0942 14.3202C99.9371 14.3202 100.518 14.5824 100.63 15.4441H103.44C103.29 13.5522 101.829 12.3721 99.1129 12.3721C96.8464 12.3721 94.9732 13.421 94.9732 15.4441C94.9732 17.6919 96.7527 18.1414 98.4198 18.4224C99.6936 18.6472 100.855 18.7409 100.855 19.6025C100.855 20.2207 100.274 20.5578 99.3564 20.5578C98.3449 20.5578 97.708 20.0895 97.5956 19.1342H94.7109C94.8046 21.2509 96.5654 22.5434 99.3751 22.5434Z" fill="white"/>
<path d="M107.886 22.5247C109.216 22.5247 110.059 22.0002 110.752 21.0636H110.808V22.2437H113.731V12.6531H110.677V18.0103C110.677 19.153 110.04 19.9397 108.992 19.9397C108.017 19.9397 107.549 19.359 107.549 18.3101V12.6531H104.515V18.9469C104.515 21.0823 105.676 22.5247 107.886 22.5247Z" fill="white"/>
<path d="M115.059 22.2437H118.112V16.8677C118.112 15.725 118.674 14.9196 119.63 14.9196C120.547 14.9196 120.978 15.519 120.978 16.5492V22.2437H124.032V16.8677C124.032 15.725 124.575 14.9196 125.549 14.9196C126.467 14.9196 126.898 15.519 126.898 16.5492V22.2437H129.951V16.006C129.951 13.8519 128.864 12.3721 126.691 12.3721C125.455 12.3721 124.425 12.8966 123.676 14.0579H123.638C123.151 13.0277 122.196 12.3721 120.941 12.3721C119.555 12.3721 118.637 13.0277 118.037 14.0205H117.981V12.653H115.059V22.2437Z" fill="white"/>
<path fill-rule="evenodd" clip-rule="evenodd" d="M6.6753 2.80809C5.55869 3.58886 4.54897 4.51198 3.67244 5.55114C7.25434 5.2186 11.805 5.7616 17.0883 8.40326C22.7301 11.2241 27.2732 11.3195 30.4349 10.7096C30.148 9.841 29.7868 9.00619 29.359 8.21259C25.7397 8.59432 21.0997 8.08903 15.6921 5.38535C12.2583 3.66843 9.23142 2.96117 6.6753 2.80809ZM27.2448 5.20324C24.3865 2.00975 20.2329 0 15.6097 0C14.2521 0 12.9348 0.173352 11.679 0.499106C13.3798 0.963188 15.1866 1.64213 17.0883 2.59299C21.0474 4.57251 24.4655 5.20988 27.2448 5.20324ZM31.1109 13.7585C27.2912 14.5128 22.0166 14.3578 15.6921 11.1956C9.77948 8.23928 5.07351 8.27651 1.89963 8.98183C1.7358 9.01821 1.57584 9.05645 1.41973 9.09625C1.00419 9.99998 0.672495 10.9503 0.434499 11.9372C0.688691 11.8692 0.95136 11.8047 1.22237 11.7444C5.07284 10.8888 10.5132 10.926 17.0883 14.2135C23.001 17.1699 27.707 17.1326 30.8809 16.4273C30.9896 16.4032 31.0968 16.3782 31.2022 16.3524C31.2137 16.1064 31.2195 15.8587 31.2195 15.6097C31.2195 14.9834 31.1826 14.3656 31.1109 13.7585ZM30.6925 19.6467C26.9099 20.308 21.7888 20.0541 15.6921 17.0059C9.77948 14.0495 5.07351 14.0868 1.89963 14.7921C1.19512 14.9486 0.561357 15.1393 0.00228683 15.3405C0.000762537 15.4301 0 15.5198 0 15.6097C0 24.2308 6.98871 31.2195 15.6097 31.2195C22.8348 31.2195 28.9134 26.3109 30.6925 19.6467Z" fill="#7F57F1"/>
</svg>
