<svg width="187" height="32" viewBox="0 0 187 32" fill="none" xmlns="http://www.w3.org/2000/svg">
<path d="M30.4963 25.2977L30.4987 25.3004L25.4488 29.7312C24.4134 30.6622 23.0747 31.1896 21.6791 31.2155L21.6674 31.2158H4.36207C3.72146 31.2427 3.0831 31.1228 2.49639 30.8653C1.89931 30.6033 1.37183 30.2059 0.956426 29.7046C0.541002 29.2034 0.249335 28.6127 0.104378 27.9796C-0.037883 27.3574 -0.0347958 26.7103 0.114079 26.0892L1.44643 19.3052C1.56496 18.7147 1.8782 18.1801 2.33669 17.7867L2.40202 17.7307C2.26019 17.5166 2.15645 17.2794 2.09562 17.0295C2.01492 16.698 2.01211 16.3531 2.08643 16.0214L3.42143 9.22475L3.42349 9.21508C3.6833 7.99549 4.33771 6.89439 5.28657 6.08036L9.91002 2.02365C10.1239 1.77929 10.3588 1.55167 10.6128 1.34358C11.6249 0.514565 12.8843 0.0424867 14.1943 0.000696229L14.2161 0L31.5424 0.0495969C32.1823 0.0229947 32.8199 0.142974 33.406 0.400169C34.0031 0.662233 34.5306 1.05962 34.946 1.5608C35.3613 2.06191 35.6531 2.65271 35.798 3.28604C35.9405 3.90849 35.9371 4.55509 35.7885 5.17579L32.479 22.0699L32.4742 22.0904C32.1836 23.3458 31.4888 24.4718 30.4963 25.2977Z" fill="#0B280D"/>
<path d="M31.272 1.61067C31.7271 1.5877 32.1814 1.6716 32.5984 1.85551C33.0154 2.03942 33.3837 2.31826 33.6737 2.66987C33.9636 3.02147 34.1673 3.436 34.2686 3.88039C34.3697 4.32477 34.3656 4.78671 34.2564 5.22919L30.9611 22.134C30.7296 23.1384 30.1723 24.0381 29.3761 24.6926C28.5798 25.3471 27.5893 25.7198 26.5591 25.7525H9.31786C8.8626 25.7752 8.40828 25.6913 7.99111 25.5074C7.57393 25.3235 7.20548 25.0448 6.91505 24.6934C6.62463 24.3419 6.42024 23.9276 6.31819 23.4833C6.21615 23.039 6.21926 22.5769 6.32726 22.134L7.65782 15.295C7.73584 14.9612 7.92203 14.6626 8.1874 14.4456C8.45276 14.2285 8.78244 14.1053 9.12515 14.0951C12.2712 14.207 15.293 14.4432 18.1095 15.4566L18.7312 19.3673C18.7465 19.4618 18.7963 19.5472 18.8709 19.6069C18.9456 19.6667 19.0398 19.6965 19.1354 19.6907C19.245 19.6887 19.3524 19.6579 19.4462 19.6011C19.5401 19.5443 19.6174 19.4636 19.6701 19.3673L21.7965 15.4566L26.0493 14.1137C26.1521 14.0808 26.2447 14.0217 26.3177 13.9421C26.3908 13.8625 26.4418 13.7652 26.4658 13.6599C26.4901 13.5667 26.4787 13.4679 26.4338 13.3827C26.389 13.2976 26.3139 13.2324 26.2233 13.1998L22.4928 11.863L21.8711 7.95247C21.8559 7.85748 21.8063 7.77139 21.7318 7.71067C21.6573 7.64987 21.563 7.61865 21.4669 7.62294C21.3566 7.62544 21.2489 7.65728 21.1549 7.7152C21.0609 7.77311 20.984 7.85498 20.9322 7.95247L18.8059 11.863C15.7224 12.7475 12.5319 13.2037 9.3241 13.2185C9.17011 13.2316 9.01526 13.2079 8.8722 13.1494C8.72913 13.091 8.60199 12.9996 8.50123 12.8824C8.40047 12.7653 8.32898 12.6258 8.29261 12.4756C8.25624 12.3255 8.256 12.1687 8.29198 12.0184L9.62256 5.17941C9.85272 4.17549 10.4088 3.27604 11.2041 2.62144C11.9993 1.96684 12.9889 1.59404 14.0183 1.56104L31.272 1.61067Z" fill="#99E39E"/>
<path d="M137.331 24.1975C134.134 24.1975 131.866 22.8938 131.151 20.4342L135.331 18.5403C135.628 19.5487 136.494 20.0161 138.067 20.0161C139.291 20.0161 140.281 19.6471 140.419 18.86C140.593 17.8762 139.62 17.7286 138.135 17.5073C135.677 17.1383 132.15 16.179 132.849 12.2191C133.387 9.16917 136.571 6.83252 140.317 6.83252C143.265 6.83252 145.532 8.13611 146.248 10.5957L142.067 12.4897C141.736 11.678 140.954 11.0139 139.38 11.0139C138.281 11.0139 137.621 11.3582 137.5 12.0469C137.335 12.9815 138.382 13.2767 139.987 13.5226C142.419 13.8917 145.751 14.8263 145.049 18.8108C144.511 21.8608 141.077 24.1975 137.331 24.1975Z" fill="white"/>
<path d="M162.731 23.8039H167.426L171.119 12.0715L172.053 21.787C172.18 23.189 173.307 23.8777 174.681 23.8777C176.079 23.8777 177.38 23.1644 178.064 21.6886L182.428 12.0961L181.712 23.8039H186.383L186.831 9.93163C186.887 7.91477 185.729 6.83252 183.755 6.83252C181.957 6.83252 180.291 7.64417 179.491 9.48893L175.678 18.2206L174.934 9.4151C174.785 7.57042 173.441 6.83252 171.692 6.83252C169.669 6.83252 168.084 7.89018 167.413 9.85787L162.731 23.8039Z" fill="white"/>
<path d="M147.067 16.302C146.2 21.2212 148.065 24.099 153.36 24.099C158.63 24.099 161.56 21.2212 162.427 16.302L164.032 7.20142H159.411L157.828 16.179C157.377 18.737 156.192 19.7947 154.119 19.7947C152.071 19.7947 151.258 18.737 151.709 16.179L153.292 7.20142H148.672L147.067 16.302Z" fill="white"/>
<path fill-rule="evenodd" clip-rule="evenodd" d="M115.629 23.8038L120.254 23.7792L120.965 19.7455H123.063C127.958 19.7455 131.147 17.3842 131.85 13.3997C132.53 9.53804 130.02 7.20142 125.025 7.20142H118.557L115.629 23.8038ZM122.439 11.3827H124.413C126.411 11.3827 127.334 12.096 127.104 13.3997C126.857 14.8017 125.749 15.5641 123.676 15.5641H121.703L122.439 11.3827Z" fill="white"/>
<path d="M110.946 7.20142H115.567L112.639 23.8038H108.019L110.946 7.20142Z" fill="white"/>
<path fill-rule="evenodd" clip-rule="evenodd" d="M89.9378 15.5148C89.066 20.4586 92.2074 24.1726 97.3024 24.1726C102.397 24.1726 106.849 20.4586 107.72 15.5148C108.592 10.571 105.451 6.85693 100.356 6.85693C95.2607 6.85693 90.8096 10.571 89.9378 15.5148ZM102.975 15.5148C102.541 17.9744 100.409 19.8683 98.0611 19.8683C95.7134 19.8683 94.2492 17.9744 94.6831 15.5148C95.1171 13.0552 97.2486 11.1613 99.5963 11.1613C101.944 11.1613 103.409 13.0552 102.975 15.5148Z" fill="white"/>
<path d="M80.2768 24.1726C75.2319 24.1726 72.0579 20.3603 72.9123 15.5148C73.7667 10.6693 78.2351 6.85693 83.3301 6.85693C86.3271 6.85693 89.0058 8.38187 89.7394 11.1613L85.6036 13.2274C85.1252 11.9729 84.3236 11.1367 82.3755 11.1367C80.0029 11.1367 78.1047 12.9814 77.6446 15.5886C77.1632 18.3187 78.4536 20.0651 81.0011 20.0651C82.3498 20.0651 83.2208 19.9421 84.0575 19.3026L84.4446 17.015L80.1215 15.1047H89.2501L89.1213 15.8837H89.1314L88.9886 16.692L88.98 16.7453L88.9792 16.7457L88.2635 20.8029C86.6183 22.7706 83.6735 24.1726 80.2768 24.1726Z" fill="white"/>
<path fill-rule="evenodd" clip-rule="evenodd" d="M54.6186 15.5148C53.7469 20.4586 56.8883 24.1726 61.9833 24.1726C67.0784 24.1726 71.5296 20.4586 72.4013 15.5148C73.273 10.571 70.1316 6.85693 65.0366 6.85693C59.9416 6.85693 55.4904 10.571 54.6186 15.5148ZM67.6559 15.5148C67.2222 17.9744 65.0901 19.8683 62.7424 19.8683C60.3946 19.8683 58.9303 17.9744 59.364 15.5148C59.7977 13.0552 61.9299 11.1613 64.2777 11.1613C66.6254 11.1613 68.0896 13.0552 67.6559 15.5148Z" fill="white"/>
<path d="M48.6357 7.20142L46.4455 19.6225H53.8882L53.151 23.8038H45.0838C42.2366 23.8038 41.348 22.328 41.76 19.9914L44.0152 7.20142H48.6357Z" fill="white"/>
</svg>
