<svg width="50" height="50" viewBox="0 0 50 50" fill="none" xmlns="http://www.w3.org/2000/svg">
<g clip-path="url(#clip0_127_38)">
<path d="M39.9026 8.47314H9.42554V36.1915H39.9026V8.47314Z" fill="white"/>
<path fill-rule="evenodd" clip-rule="evenodd" d="M49.3447 24.697C49.3447 38.3188 38.3024 49.3611 24.6807 49.3611C11.0591 49.3611 0.0166016 38.3188 0.0166016 24.697C0.0166016 11.0754 11.0591 0.032959 24.6807 0.032959C38.3024 0.032959 49.3447 11.0754 49.3447 24.697ZM17.6916 34.5121H12.905C11.8992 34.5121 11.4023 34.5121 11.0994 34.3183C10.7722 34.1062 10.5723 33.7548 10.548 33.3669C10.5298 33.0096 10.7783 32.5732 11.2751 31.7007L23.0938 10.8686C23.5967 9.98394 23.8512 9.54163 24.1723 9.37805C24.5177 9.20234 24.9297 9.20234 25.2751 9.37805C25.5962 9.54163 25.8507 9.98394 26.3536 10.8686L28.7833 15.1099L28.7956 15.1315C29.3388 16.0805 29.6142 16.5618 29.7345 17.0669C29.8678 17.6183 29.8678 18.1999 29.7345 18.7513C29.6133 19.2603 29.3407 19.745 28.7893 20.7084L22.5812 31.6825L22.5651 31.7106C22.0184 32.6675 21.7413 33.1524 21.3573 33.5183C20.9392 33.9183 20.4363 34.209 19.8849 34.3728C19.382 34.5121 18.8186 34.5121 17.6916 34.5121ZM29.7793 34.5121H36.638C37.6498 34.5121 38.1589 34.5121 38.462 34.3124C38.7891 34.1003 38.995 33.7426 39.0134 33.3551C39.0308 33.0093 38.7878 32.5899 38.3116 31.7681C38.2952 31.7401 38.2788 31.7116 38.262 31.6826L34.8264 25.8054L34.7874 25.7393C34.3046 24.9229 34.0609 24.5106 33.7479 24.3513C33.4028 24.1755 32.9965 24.1755 32.6513 24.3513C32.3362 24.5149 32.0818 24.9451 31.5789 25.8115L28.1555 31.6887L28.1438 31.709C27.6427 32.574 27.3922 33.0063 27.4103 33.361C27.4345 33.7488 27.6345 34.1062 27.9616 34.3183C28.2585 34.5121 28.7675 34.5121 29.7793 34.5121Z" fill="#E84142"/>
</g>
<defs>
<clipPath id="clip0_127_38">
<rect width="49.361" height="49.3938" fill="white"/>
</clipPath>
</defs>
</svg>
